<?xml version="1.0" encoding="utf-8"?>
<!-- Generator: Adobe Illustrator 26.0.1, SVG Export Plug-In . SVG Version: 6.00 Build 0)  -->
<svg version="1.1" id="Layer_1" xmlns="http://www.w3.org/2000/svg" xmlns:xlink="http://www.w3.org/1999/xlink" x="0px" y="0px"
	 viewBox="0 0 116.49 35.11" style="enable-background:new 0 0 116.49 35.11;" xml:space="preserve">
<style type="text/css">
	.st0{fill-rule:evenodd;clip-rule:evenodd;fill:#F3879D;}
	.st1{fill-rule:evenodd;clip-rule:evenodd;fill:#FEE165;}
	.st2{fill-rule:evenodd;clip-rule:evenodd;fill:#6CCCF4;}
	.st3{fill-rule:evenodd;clip-rule:evenodd;fill:#1AB899;}
	.st4{fill-rule:evenodd;clip-rule:evenodd;fill:#5C5AA7;}
	.st5{fill:#143244;}
	.st6{fill:none;stroke:#143244;stroke-width:0.75;stroke-miterlimit:10;}
	.st7{fill:#FFCA28;}
</style>
<g>
	<g>
		
			<rect x="69.9" y="30.75" transform="matrix(-1 -1.224647e-16 1.224647e-16 -1 163.0892 65.8587)" class="st0" width="23.3" height="4.36"/>
		<rect x="93.19" y="30.75" class="st1" width="23.3" height="4.36"/>
		<rect x="23.35" y="30.75" class="st2" width="23.3" height="4.36"/>
		<rect y="30.75" class="st3" width="23.3" height="4.36"/>
		<rect x="46.6" y="30.75" class="st4" width="23.3" height="4.36"/>
	</g>
	<g>
		<g>
			<path class="st5" d="M9.77,27.02H0V0.65h9.77c7.34,0,11.9,5.05,11.9,13.19C21.66,21.89,16.99,27.02,9.77,27.02z M9.77,5.32H5.02
				v17.03h4.75c5.97,0,6.88-5.36,6.88-8.55C16.65,9.92,15.43,5.32,9.77,5.32z"/>
			<path class="st5" d="M49.45,27.02h-4.64v-2.85c-1.75,2.09-4.56,3.31-7.83,3.31c-7.18,0-12.81-6.01-12.81-13.72S29.8,0,36.98,0
				c5.85,0,10.34,3.31,11.97,8.78h-5.4c-1.03-2.32-3.53-4.22-6.58-4.22c-4.37,0-7.79,4.18-7.79,9.2c0,4.98,3.53,9.16,8.02,9.16
				c3.76,0,6.69-2.59,7.64-5.89H37.7v-4.68h11.74V27.02z"/>
			<path class="st5" d="M64.99,17.6h-6.2v9.43h-5.02V0.65h11.1c5.51,0,8.7,3.34,8.7,8.51C73.58,14.06,70.2,17.6,64.99,17.6z
				 M58.8,5.32V13h6.04c2.32,0,3.72-1.18,3.72-3.84s-1.41-3.84-3.72-3.84H58.8z"/>
			<path class="st5" d="M86.85,5.32v21.7h-5.02V5.32h-7.07V0.65h19.16v4.68H86.85z"/>
			<path class="st5" d="M116.49,27.02H96.96V0.65h19.27v4.68h-14.25v5.63h12.16v4.68h-12.16v6.73h14.52V27.02z"/>
		</g>
	</g>
</g>
</svg>
