<svg xmlns="http://www.w3.org/2000/svg" id="Layer_1" data-name="Layer 1" viewBox="29.18 11.04 505.48 90.49"><defs><style>.cls-1{isolation:isolate;}.cls-2{fill:#fff;}</style></defs><g id="Grupo_89" data-name="Grupo 89"><g id="Buenos_Aires_Ciudad" data-name="Buenos Aires Ciudad" class="cls-1"><g class="cls-1"><path class="cls-2" d="M137.23,70.66H122.75V40.93h13.71c5.95,0,8.95,3.08,8.95,8a6.94,6.94,0,0,1-2.91,5.83,7.55,7.55,0,0,1,4.07,7.11C146.57,67.23,143,70.66,137.23,70.66Zm-8.82-24.59v6.55h8.05a3.28,3.28,0,0,0,3.47-3.29,3.15,3.15,0,0,0-3.47-3.26Zm7.92,11.74h-7.92v7.66h8.05c2.18,0,4.33-.85,4.33-3.77C140.79,59.22,139.2,57.81,136.33,57.81Z"/></g><g class="cls-1"><path class="cls-2" d="M168.75,70.66h-5.4v-2a7.2,7.2,0,0,1-5.61,2.53c-5.22,0-8.69-3.9-8.69-9.68V48.6h5.65V61.49c0,1.24.43,4.33,4.11,4.33a4.18,4.18,0,0,0,4.29-4.33V48.6h5.65Z"/><path class="cls-2" d="M177.53,61.83a5.61,5.61,0,0,0,5.52,4.37,5.11,5.11,0,0,0,4.67-2.57h6c-1.28,4.5-5.18,7.54-10.66,7.54a11.57,11.57,0,0,1,0-23.13c6.51,0,11.9,5.06,11.09,13.79Zm11.05-4.62a5.54,5.54,0,0,0-5.53-4.2,5.65,5.65,0,0,0-5.44,4.2Z"/></g><g class="cls-1"><path class="cls-2" d="M217,70.66h-5.66V57.76c0-1.28-.38-4.36-4.11-4.36A4.18,4.18,0,0,0,203,57.76v12.9h-5.66V48.6h5.4v2.14a7.28,7.28,0,0,1,5.7-2.7c5.18,0,8.61,3.9,8.61,9.72Z"/></g><g class="cls-1"><path class="cls-2" d="M242.11,59.65a11.12,11.12,0,1,1-22.23,0c0-6.6,5-11.61,11.1-11.61A11.28,11.28,0,0,1,242.11,59.65Zm-5.69,0c0-3.81-2.44-6.47-5.44-6.47s-5.44,2.66-5.44,6.47S228,66,231,66,236.42,63.42,236.42,59.69Z"/><path class="cls-2" d="M254.1,71.17c-5.61,0-9.76-3-10.45-7.71h5.74c.77,1.88,3,2.57,4.71,2.57,2.27,0,4-.69,4-2s-.77-1.76-4.63-2.36-9.21-1.67-9.21-6.59c0-3.47,3-7.07,9.43-7.07,5.05,0,8.82,2.74,9.55,6.9h-5.87c-.34-1-1.59-1.84-3.68-1.84-2.62,0-3.69.94-3.69,1.75,0,1.16,1.63,1.54,4.37,2,5.48.9,9.42,2.1,9.42,6.9C263.78,68.09,259.76,71.17,254.1,71.17Z"/><path class="cls-2" d="M284.94,64.7l-2,6h-6l10.36-29.73h7.16l10.36,29.73h-6l-2-6Zm5.91-17.47-4.16,12.2H295Z"/><path class="cls-2" d="M312.78,46.2h-5.66V40.93h5.66Zm0,24.46h-5.66V48.6h5.66Z"/><path class="cls-2" d="M337,58.88h-5.65V57.76c0-1.28-.39-4.36-4.11-4.36a4.18,4.18,0,0,0-4.28,4.36v12.9h-5.66V48.6h5.4v2.14a7.27,7.27,0,0,1,5.69-2.7c5.19,0,8.61,3.9,8.61,9.72Z"/><path class="cls-2" d="M344.42,61.83A5.62,5.62,0,0,0,350,66.2a5.12,5.12,0,0,0,4.67-2.57h6c-1.29,4.5-5.19,7.54-10.67,7.54A11.57,11.57,0,0,1,350,48c6.51,0,11.91,5.06,11.1,13.79Zm11.05-4.62A5.52,5.52,0,0,0,350,53a5.64,5.64,0,0,0-5.44,4.2Z"/><path class="cls-2" d="M373.16,71.17c-5.61,0-9.76-3-10.45-7.71h5.74c.77,1.88,3,2.57,4.71,2.57,2.27,0,4-.69,4-2s-.77-1.76-4.62-2.36-9.21-1.67-9.21-6.59c0-3.47,3-7.07,9.42-7.07,5.06,0,8.83,2.74,9.55,6.9h-5.86c-.35-1-1.59-1.84-3.69-1.84-2.61,0-3.68.94-3.68,1.75,0,1.16,1.63,1.54,4.37,2,5.48.9,9.42,2.1,9.42,6.9C382.84,68.09,378.82,71.17,373.16,71.17Z"/></g><g class="cls-1"><path class="cls-2" d="M411.49,71.17c-8.09,0-14.39-6.81-14.39-15.5s6.3-15.51,14.39-15.51A13.49,13.49,0,0,1,425,50.05H418.9a8.2,8.2,0,0,0-7.41-4.71c-4.88,0-8.74,4.71-8.74,10.33S406.61,66,411.49,66a8.32,8.32,0,0,0,7.41-4.8H425A13.65,13.65,0,0,1,411.49,71.17Z"/></g><g class="cls-1"><path class="cls-2" d="M433.5,46.2h-5.65V40.93h5.65Zm0,24.46h-5.65V48.6h5.65Z"/></g><g class="cls-1"><path class="cls-2" d="M457.32,70.66h-5.4v-2a7.22,7.22,0,0,1-5.61,2.53c-5.23,0-8.7-3.9-8.7-9.68V48.6h5.66V61.49c0,1.24.43,4.33,4.11,4.33a4.17,4.17,0,0,0,4.28-4.33V48.6h5.66Z"/><path class="cls-2" d="M483,70.66h-5.39V68.3a9.25,9.25,0,0,1-6.77,2.83c-5.74,0-10.5-5-10.5-11.48s4.76-11.52,10.5-11.52a9.25,9.25,0,0,1,6.51,2.57V38.79H483Zm-11.3-17.31c-3.13,0-5.66,2.74-5.66,6.34a5.68,5.68,0,1,0,11.31,0C477.36,56.18,474.83,53.35,471.71,53.35Z"/><path class="cls-2" d="M508.84,70.66h-5.4V68.3a9.17,9.17,0,0,1-6.77,2.83c-5.74,0-10.49-5-10.49-11.48s4.75-11.52,10.49-11.52A9.2,9.2,0,0,1,503.44,51V48.6h5.4ZM497.53,53.35c-3.13,0-5.65,2.74-5.65,6.34s2.52,6.21,5.65,6.21a5.94,5.94,0,0,0,5.65-6.21C503.18,56.18,500.66,53.35,497.53,53.35Z"/></g><g class="cls-1"><path class="cls-2" d="M534.62,70.66h-5.4V68.3a9.23,9.23,0,0,1-6.77,2.83c-5.74,0-10.49-5-10.49-11.48s4.75-11.52,10.49-11.52A9.25,9.25,0,0,1,529,50.7V38.79h5.66ZM523.31,53.35c-3.13,0-5.65,2.74-5.65,6.34s2.52,6.21,5.65,6.21A5.94,5.94,0,0,0,529,59.69C529,56.18,526.44,53.35,523.31,53.35Z"/></g></g><path id="Trazado_177" data-name="Trazado 177" class="cls-2" d="M88.15,32.32h-.07a20.83,20.83,0,0,1-6.45-1.68c-.84-.32-1.7-.64-2.57-.92a18.18,18.18,0,0,0-4.62-.9c-.37,0-.72,0-1.08,0a4.5,4.5,0,0,0-3.13.9,23,23,0,0,0-1-3.36c-.42-1.06-1.05-2.33-2.18-2.68a2.1,2.1,0,0,0-.56-.08,3.28,3.28,0,0,0-2.4,1.61l-.19.28c-.49.71-.73,1.06-.68,1.39s.49.59,1.41,1.11c.39.23.46.81.52,1.23v0a14.52,14.52,0,0,1,.12,1.86,9.36,9.36,0,0,0-5.09-2.2,7.56,7.56,0,0,0-1.5-.15,14.39,14.39,0,0,0-5.43,1.35c-.76.33-1.52.7-2.25,1.06A33.18,33.18,0,0,1,46.63,33a11.8,11.8,0,0,1-1.56.37H45c-.22,0-.62.17-.7.52s0,.59.45,1a8.1,8.1,0,0,0,4.12.93c.35,0,.69,0,1.07,0s1-.09,1.54-.17a17.53,17.53,0,0,1,2.29-.19,5.91,5.91,0,0,1,1.39.14c1.23.29,2,1.5,2.6,2.59.17.27.31.52.47.76v0A3.63,3.63,0,0,1,59,40.65c0,.56-.79,1-1.34,1.34-.14.1-.28.18-.39.25l-.59.4c-1.24.78-2.93,1.86-2.74,3.31a1.62,1.62,0,0,0,1.42,1.37.67.67,0,0,0,.2,0A3.12,3.12,0,0,0,57,46.88a5,5,0,0,1,.57-.28,4.53,4.53,0,0,1,4.61.65,7,7,0,0,1,.81.73,6.62,6.62,0,0,0,.88.79,2.08,2.08,0,0,0,1.15.38.69.69,0,0,0,.75-.55,11.62,11.62,0,0,0,.14-2.2,11.47,11.47,0,0,1,.06-1.76c0-.35.14-1.07.6-1.29a1.19,1.19,0,0,1,.53-.1,5.51,5.51,0,0,1,.71.07,2.76,2.76,0,0,0,.95.07,3.77,3.77,0,0,0,2.9-2.86,1.44,1.44,0,0,1,1.09-.92,2.78,2.78,0,0,0,1.46-1.22l.31-.38a3.86,3.86,0,0,1,3.23-1.4c.25,0,.54,0,.85,0l.86.1a18.1,18.1,0,0,0,2.21.16,6.55,6.55,0,0,0,2.15-.31,15.06,15.06,0,0,0,4.55-2.77l.2-.16c.39-.33.48-.53.37-.9s-.58-.45-.76-.48m-29.22,5A11.16,11.16,0,0,0,57.8,35.7,5,5,0,0,0,53.55,34c-.81,0-1.67.1-2.51.18a20.68,20.68,0,0,1-2.48.18,8.92,8.92,0,0,1-1.16-.07,35.63,35.63,0,0,0,4.07-1.75,30.63,30.63,0,0,1,4.39-1.84,9.68,9.68,0,0,1,2.92-.46,8.75,8.75,0,0,1,4.87,1.4,2.06,2.06,0,0,1,1.09,2.66,10.52,10.52,0,0,1-2.11,3.48l-.22.25c-.43.52-1.15,1.37-1.76,1.37a.6.6,0,0,1-.49-.24,10.15,10.15,0,0,1-1.25-1.8M70.37,39a3.9,3.9,0,0,1-1.14,2.39,2.6,2.6,0,0,1-1.9.59h-.84a1.65,1.65,0,0,0-1.23.48,6.86,6.86,0,0,0-.9,4.43v.45l-.1-.09a7.51,7.51,0,0,0-4-2.4,4.25,4.25,0,0,0-.8-.06,6.68,6.68,0,0,0-1.6.2,6,6,0,0,0-1.3.49c-.18.07-.33.15-.5.23a2.31,2.31,0,0,1-.64.16.12.12,0,0,1-.1,0,.17.17,0,0,1,0-.1c.15-.56.77-1,1.26-1.3l.13-.08c1.24-.85,2.41-1.69,3.57-2.59a16.94,16.94,0,0,0,5.59-6.46,11.56,11.56,0,0,0,.81-5.2V30a6.33,6.33,0,0,0-.41-2.23,2.32,2.32,0,0,0-1.17-1.12l-.26-.16c.23-.42.84-1.51,1.56-1.51a1,1,0,0,1,.79.5,11.44,11.44,0,0,1,1.56,3.75c.06.21.12.44.18.68A26.2,26.2,0,0,1,70.38,39M84.8,34.53a6.39,6.39,0,0,1-3.15,1h-.07a17.4,17.4,0,0,1-1.91-.19c-.54-.07-1.09-.14-1.63-.16a5.62,5.62,0,0,0-3.24.66,5.14,5.14,0,0,0-1.38,1.33,7.42,7.42,0,0,1-.94,1,.66.66,0,0,1-.37.19h0c-.16,0-.18-.11-.16-.33v-.15c0-.51-.1-1-.17-1.5l0-.27c-.12-.85-.24-1.76-.45-2.64a3.35,3.35,0,0,0-.16-.54c-.23-.78-.54-1.75.06-2.25a2.56,2.56,0,0,1,1.42-.39s.45-.05,1-.06h.19a12.58,12.58,0,0,1,1.73.12,18.32,18.32,0,0,1,3.56.87c.73.24,1.45.51,2.17.78a30.55,30.55,0,0,0,5.12,1.56c-.49.36-1,.69-1.52,1"/><path id="Trazado_178" data-name="Trazado 178" class="cls-2" d="M103.14,47.69a52.09,52.09,0,0,0-2.32-9.2A48.36,48.36,0,0,0,97,30.22a44.51,44.51,0,0,0-4-5.81,39.69,39.69,0,0,0-6.45-6.31A35.13,35.13,0,0,0,79,13.62a32.47,32.47,0,0,0-8.43-2.32,31.16,31.16,0,0,0-8.89.12,31.66,31.66,0,0,0-8.36,2.52,36.09,36.09,0,0,0-7.47,4.66A39.44,39.44,0,0,0,39.52,25a46.11,46.11,0,0,0-4.77,7.44A49.61,49.61,0,0,0,31.35,41a53.16,53.16,0,0,0-1.86,9.43,55.44,55.44,0,0,0-.15,10A54.08,54.08,0,0,0,30.92,70a51.86,51.86,0,0,0,3.15,8.72,46.58,46.58,0,0,0,4.55,7.66,76,76,0,0,0,7,7.44,32.76,32.76,0,0,0,20.85,7.71h0a31.11,31.11,0,0,0,8.73-1.24,33.77,33.77,0,0,0,8-3.53,37.94,37.94,0,0,0,7-5.52,43.2,43.2,0,0,0,5.59-6.92,46.6,46.6,0,0,0,4.17-8,52.18,52.18,0,0,0,2.71-9,54.15,54.15,0,0,0,1.12-9.75,54.69,54.69,0,0,0-.67-9.9m-66,21.62h-.95L37,66.06c.08-.24.12-.23.15-.13,0,1.16,0,2.29,0,3.36m.46-8.81-1.91-.88c-.11-.05-.1-.08,0-.08h4.1c.12,0,.12,0,0,.08l-1.84.88a.53.53,0,0,1-.39,0m-2.39-1.8,2.14-1.52c0,.49,0,1,0,1.52Zm.71-5.13h3.64c.1,0,.11,0,0,.08l-1.63.77a.56.56,0,0,1-.36,0l-1.7-.79c-.09,0-.08-.07,0-.07m-.46-.75,2-1.3c0,.4,0,.85,0,1.3Zm2.67-1.27L40,52.8H38.09c0-.44,0-.86,0-1.27m.08,5.63,2.16,1.52H38.18c0-.51,0-1,0-1.52m.2,12.13c0-1.07,0-2.2-.06-3.35,0-.09.07-.14.14.08l.87,3.27ZM66.49,98.22a28.79,28.79,0,0,1-15.78-4.78,71.42,71.42,0,0,1,10.93,1C65.27,95,68.9,95.6,72.56,96c1.4.14,2.82.25,4.23.31a28.11,28.11,0,0,1-10.29,2m16.68-5.37a51,51,0,0,1-10.84-.19c-3.61-.38-7.17-1-10.75-1.52a74.1,74.1,0,0,0-11.13-1c-1.26,0-2.53.07-3.78.2A38.84,38.84,0,0,1,43.3,87a51,51,0,0,1,11.32-.24c3.78.27,7.53.82,11.27,1.37,1.88.29,3.76.57,5.63.81,1,.13,4.67.42,5.59.41a69.81,69.81,0,0,0,11.27-.89,34.46,34.46,0,0,1-5.2,4.44m8.57-8.44a59.3,59.3,0,0,1-11,1.52,51.57,51.57,0,0,1-5.56.06q-2.82-.2-5.59-.66c-3.74-.54-7.47-1.13-11.22-1.55a69.55,69.55,0,0,0-11.27-.46,43,43,0,0,0-6.1.73c-.7-1-1.35-2-2-3A59.73,59.73,0,0,1,49.1,79.83a62.73,62.73,0,0,1,10.25.54c3.29.44,6.54,1,9.83,1.49a70.26,70.26,0,0,0,9,.68h0a59.22,59.22,0,0,0,9.4-.78q3.41-.56,6.74-1.42a42.82,42.82,0,0,1-2.65,4.1M41.65,72.91A3.57,3.57,0,0,1,40,69.82l4.85-11.46c.11-.2.16-.14.13,0Zm3.23-10.82c-.07,5.14-.15,9.91-.17,12.21a7.94,7.94,0,0,1-2.51-1.1l2.57-11.36c.07-.11.1,0,.12.22M43.6,52h3.65c.09,0,.11,0,0,.09l-1.64.78a.47.47,0,0,1-.33,0l-1.71-.79c-.1,0-.1-.09,0-.09m-.45-.73L45.07,50c0,.41,0,.83,0,1.27ZM45.83,50l1.9,1.25H45.85c0-.43,0-.86,0-1.25m3.91,16.82c-.07,2.46-.13,4.91-.17,6.82a.09.09,0,0,1-.06,0l-1.62-7.08.86-2.07Zm-.66-3.08.65-1.54c.07-.1.11-.06.12,0,0,1,0,2.06-.07,3.14Zm-1.61,3.83L49,74a7.64,7.64,0,0,1-1.83.44l-.64.06a2.64,2.64,0,0,1-.4,0c0-.87,0-2.17,0-3.78Zm-1.36,1.65c0-2.13,0-4.63-.1-7.21,0-.21.07-.37.17-.06l1.06,4.58Zm1.54-3.64L46,58.37c0-.15,0-.21.13,0l2.32,5.41Zm3.2,2.26V66.8c-.06-1.88-.1-2.75-.13-4.5,0-.12,0-.2.14-.06l2.89,7.24a6.19,6.19,0,0,1-1.29,2ZM52,72a7.83,7.83,0,0,1-1,.9c0-1-.07-2.25-.09-3.41Zm2.95-2.77,3.32-7.13c-.06,2.05-.13,5-.19,7.13H56.72c-.49,0-1.29,0-1.77,0M78.71,60.1h4.78c.12,0,.15,0,.06.08l-2.19,1a.58.58,0,0,1-.45,0l-2.25-1c-.13,0-.12-.09,0-.09m-.55-1,2.51-1.8c0,.53,0,1.73,0,1.8Zm.9-7.07.08,0h4s.06,0,.07,0h0s0,0,0,.07L81.33,53A.59.59,0,0,1,81,53l-1.87-.86c-.06,0-.08-.05-.06-.07m-.43-.85,2.14-1.54c0,.49,0,1,0,1.54Zm2.88-1.52,2.15,1.52H81.52c0-.52,0-1,0-1.52m.11,7.65,2.5,1.8H81.67c0-.59,0-1.21,0-1.8m7.26-1.93H93c.11,0,.13,0,0,.09l-1.84.88a.5.5,0,0,1-.38,0l-1.92-.88c-.1-.06-.1-.09,0-.09m-.52-.83,2.16-1.53c0,.51,0,1,0,1.53Zm3-1.53,2.18,1.53H91.38q0-.77,0-1.53m-.93,8.82c-.07,5-.16,10.31-.21,14.06a7.78,7.78,0,0,1-3.17.45l2-9.11,1.2-5.37c.06-.13.12-.19.14,0m-.28-2.13L86.57,75.52,85,71.28l0,0,4.87-11.68c.13-.23.28-.39.22.17M86.2,76.23a6,6,0,0,1-2.68-1.37l1.16-2.77Zm-3.13-1.81a8,8,0,0,1-1.24-1.76c0-2.39-.08-6-.14-9.78l2.71,8.34Zm-5.86-1.93H71.33l8.76-9.86Zm3.36-9.62c0,2.22-.12,9.35-.12,9.62H77.83Zm10.9-1c0-.16.08-.11.14,0l2.45,10.6a6.59,6.59,0,0,1-2.41,2.69c0-1.92-.17-13.29-.18-13.33m3.21,10.57-3-12.57c-.1-.77.1-.49.25-.21l5.49,12.78Zm4.9-6.13A50.64,50.64,0,0,1,98,72.21L91.44,56.63l2.88-1.29a.41.41,0,0,0,0-.73l-3-2.12-.07-4.78c.35-.05.68-.21,1-.27a3.58,3.58,0,0,1,1.13.08A2,2,0,0,0,95.29,47a5.22,5.22,0,0,1-2-.79A3.26,3.26,0,0,0,92.22,46a2.86,2.86,0,0,0-1.13,0c0-.28-.07-.57-.12-.88h-.15a26.19,26.19,0,0,0-.23,4.06c0,.92,0,1.86,0,2.79a4.26,4.26,0,0,1,0,.5l-3,2.12a.4.4,0,0,0-.17.55.42.42,0,0,0,.17.18h0l2.8,1.28L84.74,70.36l-2.92-8.85L85,60a.48.48,0,0,0,.21-.65.61.61,0,0,0-.19-.2l-3.44-2.41c0-1.13,0-2.33,0-3.38L84.52,52h0a.41.41,0,0,0,.18-.56.33.33,0,0,0-.16-.17l-3-2.15c0-2.18,0-4.34-.07-6.5a2.78,2.78,0,0,0,.5-.11,5.12,5.12,0,0,1,.56-.15,3,3,0,0,1,1.12.06,2.06,2.06,0,0,0,1.93-.48,5.37,5.37,0,0,1-2-.78,3.21,3.21,0,0,0-1.06-.29,3,3,0,0,0-1.12,0c0-.28-.08-.56-.13-.88h-.14a21.94,21.94,0,0,0-.23,3.62c0,1.11,0,2.2,0,3.31,0,.71,0,1.43,0,2.15l-3,2.14a.42.42,0,0,0-.18.57.42.42,0,0,0,.18.17l2.93,1.38c0,1,0,2.29,0,3.39l-3.43,2.4a.48.48,0,0,0-.21.64.53.53,0,0,0,.21.21l3.16,1.51-9.88,11c-.18,0-1.41,0-1.59.24a.63.63,0,0,0-.15.78,1.66,1.66,0,0,0,.77.8,2.84,2.84,0,0,0,.53.25.09.09,0,0,1,.06.06,7.48,7.48,0,0,0,4.7,4.33h0s.11,0,.08.11v0l-.11,0c-3.64-.22-7.22-.82-10.8-1.38-1.38-.23-2.75-.43-4.12-.61-.94-.12-1.86-.22-2.78-.39a.36.36,0,0,1-.16-.1h0v0h0a.18.18,0,0,1,.05-.07l0,0a8.65,8.65,0,0,0,6.11-5.19l.18-.1a3,3,0,0,0,.4-.2,1.75,1.75,0,0,0,.78-.79.64.64,0,0,0-.16-.78c-.18-.26-1.62-.24-1.62-.24h-.25c0-.79,0-2.84-.07-4.16a.76.76,0,0,0,.47,0,5.32,5.32,0,0,1,.57-.16,2.79,2.79,0,0,1,1.15,0,2.69,2.69,0,0,0,1.13,0,2.25,2.25,0,0,0,.9-.48,5.81,5.81,0,0,1-2-.82,3.61,3.61,0,0,0-1.11-.27,2.25,2.25,0,0,0-1.15.1c0-.33-.06-.59-.09-.8h-.14c-.19,1.13-.19,5.06-.2,6.58H59.31c-.08-2.77-.2-6.46-.26-8.83l2.2-4.71c.3.13.64.16,1,.27a2.87,2.87,0,0,1,.9.55A2.69,2.69,0,0,0,64,57a2.55,2.55,0,0,0,1.1,0,4.85,4.85,0,0,1-1.32-1.63,3.47,3.47,0,0,0-.76-.77,3.15,3.15,0,0,0-1-.55,3.52,3.52,0,0,0,.21-.77s0-.07-.06-.11H62c-.1,0-.12.07-.18.15a6.64,6.64,0,0,0-.51.79L59,59.23c0-.79-.05-1.58-.06-2.38a18.46,18.46,0,0,0-.21-3H58.6a23.08,23.08,0,0,0-.22,3.62c0,1.08-.06,2.18-.08,3.27l-4,8.35-3.61-8.86c0-1.1,0-2.19-.07-3.3a23.15,23.15,0,0,0-.22-3.72h-.14A25,25,0,0,0,50,56.91c0,1.12,0,2.23-.06,3.34L48.77,63,45.94,56.4c0-1.1,0-2.18,0-3.22L48.47,52a.36.36,0,0,0,0-.64s-2.17-1.58-2.63-1.9c0-2.25-.05-4.53-.08-6.8a2.05,2.05,0,0,0,.48-.1,5.15,5.15,0,0,1,.56-.16,3.57,3.57,0,0,1,1.13.06,2.46,2.46,0,0,0,1.08,0,2.53,2.53,0,0,0,.85-.47,5,5,0,0,1-2-.78,3.57,3.57,0,0,0-1-.29,2.93,2.93,0,0,0-1.18,0c0-.29-.06-.59-.1-.9h-.19a26.63,26.63,0,0,0-.24,4.37c0,1.42,0,2.83-.05,4.24,0,.27,0,.53,0,.79L42.43,51.3a.38.38,0,0,0-.16.5.49.49,0,0,0,.16.16L45,53.17c0,1.18,0,3.09,0,3.22L39.74,68.71,39,65.88h1a1.08,1.08,0,0,0,.43-.1c.1,0,.34-.11.34-.26s-.21-.2-.3-.23a1.28,1.28,0,0,0-.47-.1h-1.2l-.52-2c0-.79,0-1.61,0-2.4l2.89-1.35a.41.41,0,0,0,.18-.55.37.37,0,0,0-.17-.18s-2.77-2-3-2.09c0-.58,0-1.37,0-1.91l2.6-1.23a.36.36,0,0,0,.17-.49.39.39,0,0,0-.15-.16L38,51c0-1.89,0-3.15,0-3.3a4,4,0,0,0,.91-.2,2.48,2.48,0,0,1,1,0,2.17,2.17,0,0,0,1,0,2.08,2.08,0,0,0,.8-.43,4.66,4.66,0,0,1-1.78-.71,3.09,3.09,0,0,0-1-.24,2.12,2.12,0,0,0-1,.06c0-.26-.07-.51-.13-.79h-.14a17.23,17.23,0,0,0-.23,3.13c0,.9,0,1.53,0,2.43l-2.67,1.91a.36.36,0,0,0-.15.5.39.39,0,0,0,.15.16l2.61,1.22c0,.55,0,1.34,0,1.91l-2.93,2.09a.4.4,0,0,0-.18.55.45.45,0,0,0,.18.18l2.86,1.36c0,.79,0,1.59-.05,2.38l-.51,2h-1.2a1.42,1.42,0,0,0-.45.08c-.09,0-.33.13-.33.26s.21.2.3.24a1.41,1.41,0,0,0,.48.12h1l-.9,3.42H34.11a49.2,49.2,0,0,1-1.59-10.1A51.5,51.5,0,0,1,32.94,49a49.81,49.81,0,0,1,2.24-9.24A45.09,45.09,0,0,1,39,31.55a38.88,38.88,0,0,1,2.65-3.95,19.42,19.42,0,0,0,9,.11,28,28,0,0,1,9.08-.44l.89.16a9.69,9.69,0,0,1,.33-1.49,26.85,26.85,0,0,0-10.17-.79,10.75,10.75,0,0,1-6.27-.93,31.62,31.62,0,0,1,3.74-3.38,12.36,12.36,0,0,0,5.07,1.9c1.16.2,2.33.29,3.47.55a32.14,32.14,0,0,1,3.44,1,12.64,12.64,0,0,1,1.16.51,7.37,7.37,0,0,1,.8-1.32L61.43,23A19.54,19.54,0,0,0,57,21.26a18.42,18.42,0,0,1-3-1.18,9.15,9.15,0,0,1-2.22-1.63,28.79,28.79,0,0,1,4.41-2.2,21.84,21.84,0,0,0,4.09,3.27,14.7,14.7,0,0,1,2.8,3.09,5.38,5.38,0,0,1,1.35-.74,14.61,14.61,0,0,0-2.93-4.47,5.63,5.63,0,0,1-1.61-2.3,26.78,26.78,0,0,1,5-.75l.82,7.21a3.83,3.83,0,0,1,.76,0,5,5,0,0,1,.77,0l.82-7.2a27.52,27.52,0,0,1,3.51.4c.88.18,1.54.34,1.54.34a5.87,5.87,0,0,1-1.6,2.3,14.41,14.41,0,0,0-2.91,4.48,5.09,5.09,0,0,1,1.33.74,15.77,15.77,0,0,1,2.79-3.09,24.14,24.14,0,0,0,4.06-3.27,27.6,27.6,0,0,1,3.13,1.43l1.32.76A25.45,25.45,0,0,1,79,20.08a13.72,13.72,0,0,1-3,1.18A20.16,20.16,0,0,0,71.57,23l-.75.45a6.13,6.13,0,0,1,.82,1.31,11.16,11.16,0,0,1,1.16-.5,30.85,30.85,0,0,1,3.44-1c1.12-.26,2.3-.35,3.46-.55a12.66,12.66,0,0,0,5.06-1.9,40.1,40.1,0,0,1,3.74,3.4,10.89,10.89,0,0,1-6.26.92,27,27,0,0,0-10.17.77,7.3,7.3,0,0,1,.31,1.46l1-.15a28.23,28.23,0,0,1,9,.48,19.33,19.33,0,0,0,9-.1c.4.5.77,1,1.12,1.55A42.42,42.42,0,0,1,96.71,37a47.06,47.06,0,0,1,2.78,8.92,52.26,52.26,0,0,1,.07,20.43"/></g></svg>