<?xml version="1.0" encoding="utf-8"?>
<!-- Generator: Adobe Illustrator 26.1.0, SVG Export Plug-In . SVG Version: 6.00 Build 0)  -->
<svg version="1.1" id="Layer_1" xmlns="http://www.w3.org/2000/svg" xmlns:xlink="http://www.w3.org/1999/xlink" x="0px" y="0px"
	 viewBox="0 0 101.7 48.1" style="enable-background:new 0 0 101.7 48.1;" xml:space="preserve">
<style type="text/css">
	.st0{fill:#3D7CC9;}
	.st1{fill:#FF4438;}
	.st2{fill:#00AF9A;}
	.st3{fill:#93D500;}
	.st4{fill:#A2C7E2;}
	.st5{fill:#FF671D;}
	.st6{fill:#009845;}
	.st7{fill:#2B5597;}
	.st8{fill:#863399;}
	.st9{fill:#E31D93;}
	.st10{fill:#FFD200;}
	.st11{fill:#58595B;}
	.st12{fill:none;stroke:#009845;stroke-width:22.677;stroke-linecap:round;stroke-linejoin:round;}
	.st13{fill-rule:evenodd;clip-rule:evenodd;fill:#CCE4D2;}
	.st14{fill-rule:evenodd;clip-rule:evenodd;fill:#FFFFFF;}
	.st15{fill-rule:evenodd;clip-rule:evenodd;fill:#EC6749;}
	.st16{fill:#EC6749;}
	.st17{fill:#EF483E;}
	.st18{fill:#ED8366;}
	.st19{fill:#E85E43;}
	.st20{fill:#F3AD94;}
	.st21{fill:#F8CDBC;}
	.st22{fill:#E32326;}
	.st23{fill:#FEFEFE;}
	.st24{fill:#FEDC2E;}
	.st25{opacity:0.4;}
	
		.st26{clip-path:url(#SVGID_00000117661938351980915880000004539792915815454098_);fill:url(#SVGID_00000070836447170744316280000011324103731266603668_);}
	.st27{clip-path:url(#SVGID_00000182507645039561993890000007710032537866146964_);}
	
		.st28{clip-path:url(#SVGID_00000160177578198791429760000001706454882035687816_);fill:url(#SVGID_00000142165795786447032240000006273275403527401373_);}
	.st29{fill:#FFE077;}
	.st30{fill:#386498;}
	.st31{fill:#6691D3;}
	.st32{opacity:0.5;}
	.st33{clip-path:url(#SVGID_00000104673442270177736750000001830226905201278339_);}
	
		.st34{clip-path:url(#SVGID_00000018215550418253548630000009251409906780108166_);fill:url(#SVGID_00000163793871475905030280000018165457496543441538_);}
	.st35{clip-path:url(#SVGID_00000052079067615964157710000001221833544274720446_);}
	
		.st36{clip-path:url(#SVGID_00000063624521499386279170000010754336411682519219_);fill:url(#SVGID_00000149352369134812099230000014554070983293068733_);}
	.st37{fill-rule:evenodd;clip-rule:evenodd;fill:#E21F26;}
	.st38{fill-rule:evenodd;clip-rule:evenodd;fill:#FBFCFC;}
	.st39{fill-rule:evenodd;clip-rule:evenodd;fill:#FFD200;}
	.st40{fill-rule:evenodd;clip-rule:evenodd;fill:#58595B;}
	.st41{fill-rule:evenodd;clip-rule:evenodd;fill:#F7F8F8;}
	.st42{fill-rule:evenodd;clip-rule:evenodd;fill:#F6F6F6;}
	.st43{fill-rule:evenodd;clip-rule:evenodd;fill:#F3F3F3;}
	.st44{fill-rule:evenodd;clip-rule:evenodd;fill:#EBEBEB;}
	.st45{fill-rule:evenodd;clip-rule:evenodd;fill:#EE7E22;}
	.st46{fill-rule:evenodd;clip-rule:evenodd;fill:#E1E2E1;}
	.st47{fill-rule:evenodd;clip-rule:evenodd;fill:#767575;}
	.st48{fill-rule:evenodd;clip-rule:evenodd;fill:#009845;}
	.st49{fill:#F9BD15;}
	.st50{fill:#FFFFFF;}
	.st51{clip-path:url(#SVGID_00000034080790526310655040000013244172564774805408_);}
	.st52{clip-path:url(#SVGID_00000023246086542188105780000006777305231024981942_);}
	.st53{fill:none;stroke:#FFFFFF;stroke-width:3;stroke-miterlimit:10;}
	.st54{fill-rule:evenodd;clip-rule:evenodd;fill:#414042;}
	.st55{fill:#414042;}
	.st56{fill:none;stroke:#FFD200;stroke-width:5;stroke-linecap:round;stroke-linejoin:round;stroke-miterlimit:10;}
	.st57{fill:none;stroke:#FF4438;stroke-width:3;stroke-linecap:round;stroke-linejoin:round;stroke-miterlimit:10;}
	.st58{fill:#980714;}
	.st59{fill-rule:evenodd;clip-rule:evenodd;fill:#FABC15;}
	.st60{fill:url(#SVGID_00000172408377891593455280000001280425402701243795_);}
	.st61{fill:url(#SVGID_00000093866106383819439850000001327662596099173294_);}
	.st62{fill:url(#SVGID_00000017486471435707684470000001822453015771570619_);}
	.st63{fill-rule:evenodd;clip-rule:evenodd;fill:#FF671D;}
	
		.st64{clip-path:url(#SVGID_00000030482637301385047980000017269513309837846968_);fill-rule:evenodd;clip-rule:evenodd;fill:#01A355;}
	.st65{fill-rule:evenodd;clip-rule:evenodd;fill:#585856;}
	.st66{fill:#965BA5;}
	.st67{fill:#39485C;}
	.st68{fill:none;stroke:#39485C;stroke-miterlimit:10;}
	.st69{fill:#515E70;}
	.st70{enable-background:new    ;}
	.st71{clip-path:url(#SVGID_00000112609007942088126950000014063199640931006395_);}
	.st72{fill:none;stroke:#39485C;stroke-width:7.714;stroke-linecap:round;stroke-linejoin:round;stroke-miterlimit:10;}
</style>
<g id="Grupo_20034" transform="translate(-15074.705 1901)">
	<g id="Grupo_20024" transform="translate(15125.631 -1897.208)">
		<path id="Trazado_27692" class="st50" d="M9.5,7.7C9.5,6.6,8.9,5.6,8,5.1C8.7,4.6,9.1,3.9,9,3C9,1.2,8,0.1,5.8,0.1H0.9v10.7h5.2
			c1.7,0.2,3.2-1,3.3-2.7C9.5,8,9.5,7.8,9.5,7.7z M5.8,2C6.4,1.9,7,2.4,7.1,3c0,0.1,0,0.1,0,0.2c0,0.7-0.5,1.2-1.2,1.2
			c0,0,0,0-0.1,0H2.9V2H5.8z M7.4,7.6c0,1-0.8,1.4-1.6,1.4H2.9V6.2h2.9C6.8,6.2,7.4,6.7,7.4,7.6L7.4,7.6z M17.3,2.9h-2v4.6
			c0,0.8-0.6,1.5-1.4,1.6c0,0-0.1,0-0.1,0c-0.8,0-1.4-0.6-1.5-1.3c0-0.1,0-0.1,0-0.2V2.9h-2v4.6c0,2.1,1.2,3.5,3.1,3.5
			c0.8,0,1.5-0.3,2-0.9v0.7h1.9L17.3,2.9z M26.3,7.6c0.3-3.1-1.6-5-4-5c-2.3,0.1-4.1,2-4.1,4.3c0,2.2,1.8,4,4.1,4.1
			c1.8,0.1,3.4-1,3.8-2.7h-2.2c-0.3,0.6-1,1-1.7,0.9c-0.9,0-1.8-0.6-2-1.6L26.3,7.6z M20.3,6c0.2-0.9,1-1.5,2-1.5
			c0.9,0,1.8,0.6,2,1.5L20.3,6z M34.3,6.2c0-2.1-1.2-3.5-3.1-3.5c-0.8,0-1.5,0.4-2,1V2.9h-1.9v7.9h2V6.2c0-0.8,0.6-1.5,1.4-1.6
			c0,0,0.1,0,0.1,0c0.8,0,1.4,0.6,1.5,1.3c0,0.1,0,0.2,0,0.2v4.6h2L34.3,6.2z M39.2,2.7c-2.2,0-4,1.9-4,4.1c0,0,0,0.1,0,0.1
			c0,2.2,1.8,4,4,4s4-1.8,4-4C43.3,4.6,41.5,2.8,39.2,2.7C39.2,2.7,39.2,2.7,39.2,2.7L39.2,2.7z M39.2,9.1c-1.1-0.1-2-1-2-2.2
			c0,0,0-0.1,0-0.1c-0.2-1.1,0.5-2.1,1.6-2.3c1.1-0.2,2.1,0.5,2.3,1.6c0,0.2,0,0.5,0,0.7C41.2,8,40.4,9,39.2,9.1
			C39.2,9.1,39.2,9.1,39.2,9.1L39.2,9.1z M50.8,8.3c0-1.7-1.4-2.2-3.4-2.5c-1-0.2-1.6-0.3-1.6-0.7c0-0.3,0.4-0.6,1.3-0.6
			c0.8,0,1.2,0.3,1.3,0.7h2.1c-0.4-1.6-1.8-2.6-3.4-2.5c-2.3,0-3.4,1.3-3.4,2.5c0,1.8,1.9,2.2,3.3,2.4c1.4,0.2,1.7,0.4,1.7,0.8
			c0,0.5-0.6,0.7-1.4,0.7c-0.7,0-1.4-0.3-1.7-0.9h-2.1c0.2,1.7,1.7,2.8,3.8,2.8C49.4,11,50.8,9.9,50.8,8.3L50.8,8.3z"/>
		<path id="Trazado_27690" class="st50" d="M7.1,23.3l0.7,2.1H10L6.3,14.7H3.7L0,25.4h2.2l0.7-2.1H7.1z M6.5,21.4h-3L5,17L6.5,21.4z
			 M13.2,14.7h-2v1.9h2V14.7z M13.2,17.5h-2v7.9h2V17.5z M22.2,20.8c0-2.1-1.2-3.5-3.1-3.5c-0.8,0-1.5,0.4-2,1v-0.8h-1.9v7.9h2v-4.6
			c0-0.8,0.6-1.5,1.4-1.6c0,0,0.1,0,0.1,0c0.8,0,1.4,0.6,1.5,1.3c0,0.1,0,0.2,0,0.2v0.4h2L22.2,20.8z M31.2,22.2c0.3-3.1-1.6-5-4-5
			c-2.3,0.1-4.1,2-4.1,4.3c0,2.2,1.8,4,4.1,4.1c1.8,0.1,3.4-1,3.8-2.7h-2.2c-0.3,0.6-1,1-1.7,0.9c-0.9,0-1.8-0.6-2-1.6L31.2,22.2z
			 M25.2,20.6c0.2-0.9,1-1.5,2-1.5c0.9,0,1.8,0.6,2,1.5L25.2,20.6z M39.3,22.9c0-1.7-1.4-2.2-3.4-2.5c-1-0.2-1.6-0.3-1.6-0.7
			c0-0.3,0.4-0.6,1.3-0.6c0.8,0,1.2,0.3,1.3,0.7h2.1c-0.4-1.6-1.8-2.6-3.4-2.5c-2.3,0-3.4,1.3-3.4,2.5c0,1.8,1.9,2.2,3.3,2.4
			c1.4,0.2,1.7,0.4,1.7,0.8c0,0.5-0.6,0.7-1.4,0.7c-0.7,0-1.4-0.3-1.7-0.9H32c0.2,1.7,1.7,2.8,3.8,2.8
			C37.8,25.6,39.3,24.5,39.3,22.9z"/>
		<path id="Trazado_27691" class="st50" d="M10.4,36.6H8.3c-0.5,1-1.5,1.7-2.7,1.7c-1.8,0-3.1-1.7-3.1-3.7c-0.1-1.9,1.3-3.5,3.1-3.7
			c1.1,0,2.2,0.7,2.7,1.7h2.2c-0.6-2.2-2.6-3.6-4.9-3.6c-2.9,0.1-5.3,2.5-5.2,5.5c0,0,0,0.1,0,0.1c-0.1,2.9,2.1,5.4,5.1,5.6
			c0,0,0.1,0,0.1,0C7.8,40.2,9.8,38.7,10.4,36.6z M13.4,29.3h-2v1.9h2V29.3z M13.4,32h-2V40h2V32z M21.8,32h-2v4.6
			c0,0.8-0.6,1.5-1.4,1.6c0,0-0.1,0-0.1,0c-0.8,0-1.4-0.6-1.5-1.3c0-0.1,0-0.1,0-0.2V32h-2v4.6c0,2.1,1.2,3.5,3.1,3.5
			c0.8,0,1.5-0.3,2-0.9V40h1.9L21.8,32z M30.8,28.5h-2v4.3c-0.6-0.6-1.5-0.9-2.3-0.9c-2.2,0.1-3.9,1.9-3.8,4.1c0,0,0,0,0,0
			c-0.1,2.2,1.6,4,3.7,4.1c0,0,0,0,0,0c0.9,0,1.8-0.4,2.4-1V40h1.9L30.8,28.5z M28.8,36c0.1,1.1-0.7,2.1-1.8,2.2
			c-1.1,0.1-2.1-0.7-2.2-1.8c0-0.1,0-0.3,0-0.4c-0.1-1.1,0.7-2.1,1.8-2.3c1.1-0.1,2.1,0.7,2.3,1.8C28.8,35.7,28.8,35.9,28.8,36z
			 M40,32H38v0.8c-0.6-0.7-1.5-1-2.4-1c-2.2,0.1-3.9,1.9-3.8,4.1c0,0,0,0,0,0c-0.1,2.2,1.6,4,3.7,4.1c0,0,0,0,0,0
			c0.9,0,1.8-0.4,2.4-1V40H40V32z M37.9,36c0.1,1.1-0.7,2.1-1.8,2.2c-1.1,0.1-2.1-0.7-2.2-1.8c0-0.1,0-0.3,0-0.4
			c-0.1-1.1,0.7-2.1,1.8-2.3c1.1-0.1,2.1,0.7,2.3,1.8C37.9,35.7,37.9,35.9,37.9,36z M49.1,28.5h-2v4.3c-0.6-0.6-1.5-0.9-2.3-0.9
			c-2.2,0.1-3.9,1.9-3.8,4.1c0,0,0,0,0,0c-0.1,2.2,1.6,4,3.7,4.1c0,0,0,0,0,0c0.9,0,1.8-0.4,2.4-1V40h1.9V28.5z M47,36
			c0.1,1.1-0.7,2.1-1.8,2.2c-1.1,0.1-2.1-0.7-2.2-1.8c0-0.1,0-0.3,0-0.4c-0.1-1.1,0.7-2.1,1.8-2.3c1.1-0.1,2.1,0.7,2.3,1.8
			C47.1,35.7,47.1,35.9,47,36z"/>
	</g>
	<g id="Grupo_20021" transform="translate(15074.705 -1901)">
		<path id="Trazado_27684" class="st50" d="M21.9,7.9c-0.1,0-0.2,0.1-0.3,0.2s0.1,0.2,0.2,0.3c0,0,0,0,0.1,0c0.1,0,0.2-0.1,0.2-0.2
			C22.2,8,22.1,7.9,21.9,7.9C22,7.9,22,7.9,21.9,7.9"/>
		<path id="Trazado_27685" class="st50" d="M34.8,11.4L34.8,11.4c-1.3-0.1-2.6-0.4-3.8-0.9c-0.5-0.2-1-0.3-1.5-0.5
			c-0.9-0.3-1.8-0.4-2.7-0.5c-0.2,0-0.4,0-0.6,0c-0.7-0.1-1.3,0.1-1.8,0.5c-0.1-0.6-0.3-1.2-0.6-1.8c-0.2-0.6-0.7-1.2-1.3-1.4
			c-0.1,0-0.2,0-0.3,0c-0.6,0.1-1.1,0.4-1.4,0.9l-0.1,0.1c-0.3,0.4-0.4,0.6-0.4,0.7s0.3,0.3,0.8,0.6c0.2,0.1,0.3,0.4,0.3,0.7v0
			c0,0.3,0.1,0.7,0.1,1c-0.9-0.7-1.9-1.1-3-1.2c-0.3,0-0.6-0.1-0.9-0.1c-1.1,0-2.2,0.3-3.2,0.7c-0.4,0.2-0.9,0.4-1.3,0.6
			c-0.8,0.4-1.7,0.7-2.6,1C10,11.9,9.7,11.9,9.4,12h0c0,0,0,0,0,0h0c-0.1,0-0.4,0.1-0.4,0.3s0,0.3,0.3,0.5c0.8,0.4,1.6,0.5,2.4,0.5
			c0.2,0,0.4,0,0.6,0c0.3,0,0.6,0,0.9-0.1c0.4-0.1,0.9-0.1,1.4-0.1c0.3,0,0.5,0,0.8,0.1c0.7,0.2,1.2,0.7,1.5,1.4
			c0.1,0.1,0.2,0.3,0.3,0.4l0,0c0.2,0.3,0.4,0.6,0.4,0.9c0,0.3-0.5,0.5-0.8,0.7c-0.1,0-0.2,0.1-0.2,0.1c-0.1,0.1-0.2,0.1-0.3,0.2
			c-0.7,0.4-1.7,1-1.6,1.8c0.1,0.4,0.4,0.7,0.8,0.7c0,0,0.1,0,0.1,0c0.3,0,0.6-0.1,0.8-0.2c0.1-0.1,0.2-0.1,0.3-0.1
			c0.3-0.1,0.7-0.2,1-0.2c0.6,0,1.2,0.2,1.7,0.5c0.2,0.1,0.3,0.2,0.5,0.4c0.2,0.2,0.3,0.3,0.5,0.4c0.2,0.1,0.4,0.2,0.7,0.2
			c0.2,0,0.4-0.1,0.4-0.3c0.1-0.4,0.1-0.8,0.1-1.2c0-0.3,0-0.6,0-0.9c0-0.2,0.1-0.6,0.4-0.7c0.1,0,0.2-0.1,0.3-0.1
			c0.1,0,0.3,0,0.4,0c0.2,0,0.4,0,0.6,0c0.8-0.1,1.5-0.7,1.7-1.5c0.1-0.3,0.4-0.4,0.6-0.5c0.4-0.1,0.7-0.3,0.9-0.6
			c0.1-0.1,0.1-0.1,0.2-0.2c0.5-0.5,1.2-0.8,1.9-0.7c0.1,0,0.3,0,0.5,0c0.2,0,0.3,0,0.5,0.1c0.4,0.1,0.9,0.1,1.3,0.1
			c0.4,0,0.9-0.1,1.3-0.2c1-0.3,1.9-0.8,2.7-1.5l0.1-0.1c0.2-0.2,0.3-0.3,0.2-0.5S34.9,11.4,34.8,11.4 M17.5,14.1
			c-0.2-0.3-0.4-0.6-0.7-0.9c-0.7-0.7-1.6-1-2.5-0.9c-0.5,0-1,0.1-1.5,0.1s-1,0.1-1.5,0.1c-0.2,0-0.5,0-0.7,0
			c0.8-0.3,1.6-0.6,2.4-0.9c0.8-0.4,1.7-0.7,2.6-1c0.6-0.2,1.1-0.2,1.7-0.2c1,0,2,0.2,2.9,0.7c0.7,0.4,0.9,0.8,0.6,1.4
			c-0.3,0.7-0.7,1.3-1.2,1.8c0,0-0.1,0.1-0.1,0.1c-0.3,0.3-0.7,0.7-1,0.7c-0.1,0-0.2,0-0.3-0.1C18,14.7,17.7,14.4,17.5,14.1
			 M24.3,15c-0.1,0.5-0.3,0.9-0.7,1.3c-0.3,0.2-0.7,0.4-1.1,0.3h-0.2c-0.1,0-0.2,0-0.3,0c-0.3,0-0.5,0.1-0.7,0.3
			c-0.6,0.5-0.5,1.6-0.5,2.4v0.2l-0.1,0c-0.6-0.7-1.5-1.1-2.3-1.3c-0.2,0-0.3,0-0.5,0c-0.3,0-0.6,0-0.9,0.1
			c-0.3,0.1-0.5,0.1-0.8,0.3c-0.1,0-0.2,0.1-0.3,0.1c-0.1,0-0.2,0.1-0.4,0.1c0,0,0,0-0.1,0c0,0,0,0,0,0c0.1-0.3,0.5-0.5,0.7-0.7
			l0.1,0c0.7-0.4,1.4-0.9,2.1-1.4c1.4-0.8,2.5-2,3.3-3.4c0.4-0.9,0.6-1.8,0.5-2.8v-0.1c0-0.4-0.1-0.8-0.2-1.2
			c-0.2-0.3-0.4-0.5-0.7-0.6L21,8.3c0.1-0.2,0.5-0.8,0.9-0.8c0.2,0,0.4,0.1,0.5,0.3c0.4,0.6,0.7,1.3,0.9,2c0,0.1,0.1,0.2,0.1,0.4
			C24,11.7,24.3,13.3,24.3,15 M32.8,12.6c-0.6,0.3-1.2,0.5-1.9,0.5h-0.1c-0.4,0-0.8-0.1-1.1-0.1c-0.3,0-0.6-0.1-1-0.1
			c-0.7-0.1-1.3,0.1-1.9,0.4c-0.3,0.2-0.6,0.4-0.8,0.7c-0.2,0.2-0.4,0.4-0.6,0.5c-0.1,0.1-0.1,0.1-0.2,0.1l0,0
			c-0.1,0-0.1-0.1-0.1-0.2v-0.1c0-0.3-0.1-0.5-0.1-0.8l0-0.1C25,13,24.9,12.5,24.8,12c0-0.1-0.1-0.2-0.1-0.3c-0.1-0.4-0.3-0.9,0-1.2
			c0.3-0.1,0.5-0.2,0.8-0.2c0,0,0.3,0,0.6,0h0.1c0.3,0,0.7,0,1,0.1c0.7,0.1,1.4,0.2,2.1,0.5c0.4,0.1,0.9,0.3,1.3,0.4
			c1,0.4,2,0.6,3,0.8C33.4,12.3,33.1,12.4,32.8,12.6"/>
		<path id="Trazado_27686" class="st50" d="M43.6,19.6c-0.3-1.7-0.7-3.3-1.4-4.9c-0.6-1.5-1.4-3-2.2-4.4c-0.7-1.1-1.5-2.1-2.4-3.1
			c-1.1-1.3-2.4-2.4-3.8-3.3c-1.4-1-2.9-1.8-4.5-2.4c-1.6-0.6-3.3-1-5-1.2c-3.5-0.4-7,0.1-10.2,1.4c-1.6,0.6-3,1.5-4.4,2.5
			c-1.4,1-2.6,2.1-3.7,3.4c-1.1,1.2-2,2.5-2.8,4c-0.8,1.4-1.5,3-2,4.5c-0.5,1.6-0.9,3.3-1.1,5c-0.4,3.5-0.1,7,0.8,10.4
			C1.5,33,2.1,34.5,2.9,36c0.8,1.4,1.7,2.8,2.7,4.1c1.3,1.4,2.7,2.7,4.1,4c3.6,2.6,7.9,4.1,12.3,4.1h0c1.7,0,3.5-0.2,5.1-0.7
			c1.6-0.4,3.2-1.1,4.7-1.9c1.5-0.8,2.9-1.8,4.1-2.9c1.2-1.1,2.3-2.3,3.3-3.7c1-1.3,1.8-2.7,2.5-4.2c0.7-1.5,1.2-3.1,1.6-4.8
			C44.1,26.6,44.2,23,43.6,19.6 M4.7,31H4.1l0.5-1.7c0-0.1,0.1-0.1,0.1-0.1C4.7,29.9,4.7,30.5,4.7,31 M4.9,26.4l-1.1-0.5
			c-0.1,0-0.1,0,0,0h2.4c0.1,0,0.1,0,0,0l-1.1,0.5C5.1,26.4,5,26.4,4.9,26.4 M3.5,25.4l1.3-0.8c0,0.3,0,0.5,0,0.8H3.5z M3.9,22.7
			h2.2c0.1,0,0.1,0,0,0l-1,0.4c-0.1,0-0.1,0-0.2,0L3.9,22.7C3.9,22.7,3.9,22.7,3.9,22.7 M3.7,22.3l1.2-0.7c0,0.2,0,0.4,0,0.7H3.7z
			 M5.2,21.6l1.1,0.7H5.2C5.2,22.1,5.2,21.8,5.2,21.6 M5.3,24.6l1.3,0.8H5.3C5.3,25.1,5.3,24.9,5.3,24.6 M5.4,31c0-0.6,0-1.2,0-1.8
			c0,0,0-0.1,0.1,0L6,31H5.4z M22,46.4c-3.3,0-6.5-0.9-9.3-2.5c2.2,0,4.3,0.2,6.4,0.5c2.1,0.3,4.3,0.6,6.4,0.8
			c0.8,0.1,1.7,0.1,2.5,0.2C26.1,46,24.1,46.4,22,46.4 M31.8,43.5c-2.1,0.2-4.3,0.1-6.4-0.1c-2.1-0.2-4.2-0.5-6.3-0.8
			c-2.2-0.3-4.4-0.5-6.6-0.5c-0.7,0-1.5,0-2.2,0.1c-0.7-0.6-1.4-1.2-2-1.8c2.2-0.3,4.4-0.3,6.7-0.1c2.2,0.1,4.4,0.4,6.7,0.7
			c1.1,0.2,2.2,0.3,3.3,0.4c0.6,0.1,2.8,0.2,3.3,0.2c2.2,0,4.4-0.2,6.6-0.5C34,42.1,32.9,42.9,31.8,43.5 M36.9,39.1
			c-2.1,0.4-4.3,0.7-6.5,0.8c-1.1,0.1-2.2,0.1-3.3,0s-2.2-0.2-3.3-0.3c-2.2-0.3-4.4-0.6-6.6-0.8c-2.2-0.2-4.4-0.3-6.6-0.2
			c-1.2,0.1-2.4,0.2-3.6,0.4c-0.4-0.5-0.8-1-1.2-1.6c2-0.4,3.9-0.6,5.9-0.7c2-0.1,4,0,6,0.3c1.9,0.2,3.9,0.6,5.8,0.8
			c1.8,0.2,3.6,0.3,5.3,0.4h0c1.9,0,3.7-0.1,5.5-0.4c1.3-0.2,2.7-0.4,4-0.7C38,37.6,37.5,38.4,36.9,39.1 M7.4,32.9
			c-0.6-0.3-1-0.9-1-1.6l2.9-6.1c0.1-0.1,0.1-0.1,0.1,0L7.4,32.9z M9.3,27.2c0,2.7-0.1,5.3-0.1,6.5c-0.5-0.1-1-0.3-1.5-0.6l1.5-6
			C9.2,27,9.2,27.1,9.3,27.2 M8.5,21.9h2.2c0.1,0,0.1,0,0,0l-1,0.4c-0.1,0-0.1,0-0.2,0L8.5,21.9C8.4,21.9,8.4,21.9,8.5,21.9
			 M8.2,21.5l1.1-0.7c0,0.2,0,0.4,0,0.7H8.2z M9.8,20.8l1.1,0.7H9.8C9.8,21.2,9.8,21,9.8,20.8 M12.1,29.7c0,1.3-0.1,2.6-0.1,3.6
			c0,0,0,0,0,0l-1-3.8l0.5-1.1L12.1,29.7z M11.7,28.1l0.4-0.8c0-0.1,0.1,0,0.1,0c0,0.5,0,1.1,0,1.7L11.7,28.1z M10.8,30.1l0.9,3.4
			c-0.4,0.1-0.7,0.2-1.1,0.2c-0.1,0-0.2,0-0.4,0c-0.1,0-0.2,0-0.2,0c0-0.5,0-1.2,0-2L10.8,30.1z M10,31c0-1.1,0-2.5-0.1-3.8
			c0-0.1,0-0.2,0.1,0l0.6,2.4L10,31z M10.9,29.1l-1-3.8c0-0.1,0-0.1,0.1,0l1.4,2.9L10.9,29.1z M12.8,30.3v-0.6c0-1-0.1-1.5-0.1-2.4
			c0-0.1,0-0.1,0.1,0l1.7,3.8c-0.2,0.4-0.4,0.8-0.8,1.1L12.8,30.3z M13.4,32.5c-0.2,0.2-0.4,0.3-0.6,0.5c0-0.5,0-1.2-0.1-1.8
			L13.4,32.5z M15.2,31l2-3.8c0,1.1-0.1,2.6-0.1,3.8h-0.8C15.9,31,15.5,31,15.2,31 M29.2,26.2H32c0.1,0,0.1,0,0,0
			c0,0-1.3,0.5-1.3,0.5c-0.1,0-0.2,0-0.3,0L29.2,26.2C29.1,26.2,29.1,26.2,29.2,26.2 M28.9,25.6l1.5-1c0,0.3,0,0.9,0,1H28.9z
			 M29.4,21.9C29.4,21.9,29.4,21.9,29.4,21.9l2.4,0c0,0,0,0,0,0l0,0c0,0,0,0,0,0l-1.1,0.4c-0.1,0-0.1,0-0.2,0L29.4,21.9
			C29.4,21.9,29.4,21.9,29.4,21.9 M29.2,21.4l1.3-0.8c0,0.3,0,0.5,0,0.8H29.2z M30.9,20.6l1.3,0.8h-1.2
			C30.9,21.2,30.9,20.9,30.9,20.6 M30.9,24.7l1.5,1h-1.5C30.9,25.3,30.9,25,30.9,24.7 M35.2,23.7h2.4c0.1,0,0.1,0,0,0l-1.1,0.5
			c-0.1,0-0.2,0-0.2,0L35.2,23.7C35.1,23.7,35.1,23.7,35.2,23.7 M34.9,23.2l1.3-0.8c0,0.3,0,0.5,0,0.8H34.9z M36.7,22.4l1.3,0.8
			h-1.3C36.7,23,36.7,22.7,36.7,22.4 M36.1,27.1c0,2.6-0.1,5.5-0.1,7.5c-0.6,0.2-1.2,0.3-1.9,0.2l1.2-4.8L36.1,27.1
			C36.1,27.1,36.1,27,36.1,27.1 M35.9,26l-2.1,8.4l-0.9-2.3l0,0l2.9-6.2C35.9,25.8,36,25.7,35.9,26 M33.6,34.7
			C33,34.6,32.5,34.4,32,34l0.7-1.5L33.6,34.7z M31.8,33.8c-0.3-0.3-0.5-0.6-0.7-0.9c0-1.3,0-3.2-0.1-5.2l1.6,4.4L31.8,33.8z
			 M28.3,32.7h-3.5l5.2-5.2L28.3,32.7z M30.3,27.6c0,1.2-0.1,5-0.1,5.1h-1.5L30.3,27.6z M36.7,27.1C36.7,27,36.8,27,36.7,27.1
			l1.5,5.6c-0.3,0.6-0.8,1.1-1.4,1.4C36.8,33.2,36.7,27.1,36.7,27.1 M38.6,32.7L36.9,26c-0.1-0.4,0.1-0.3,0.2-0.1l3.2,6.8H38.6z
			 M41.5,29.5c-0.2,1.1-0.5,2.1-0.9,3.1l-3.9-8.3l1.7-0.7c0.1,0,0.2-0.2,0.1-0.3c0-0.1-0.1-0.1-0.1-0.1c0,0-1.7-1.1-1.8-1.1l0-2.5
			c0.2,0,0.4-0.1,0.6-0.1c0.2,0,0.4,0,0.7,0c0.2,0,0.4,0,0.6,0c0.2,0,0.4-0.1,0.5-0.2c-0.4-0.1-0.8-0.2-1.2-0.4
			c-0.2-0.1-0.4-0.1-0.6-0.2c-0.2,0-0.4,0-0.7,0c0-0.1,0-0.3-0.1-0.5h-0.1c-0.1,0.7-0.2,1.4-0.1,2.2c0,0.5,0,1,0,1.5
			c0,0.1,0,0.2,0,0.3l-1.7,1.1c-0.1,0-0.2,0.2-0.1,0.3c0,0.1,0.1,0.1,0.1,0.1l0,0l1.6,0.7l-3.3,7.3L31,26.9l1.9-0.8
			c0.1-0.1,0.2-0.2,0.1-0.3c0-0.1-0.1-0.1-0.1-0.1c0,0-1.8-1.1-2-1.3c0-0.6,0-1.2,0-1.8l1.7-0.7l0,0c0.1,0,0.2-0.2,0.1-0.3
			c0-0.1-0.1-0.1-0.1-0.1c0,0-1.6-1-1.8-1.1c0-1.2,0-2.3,0-3.4c0.1,0,0.2,0,0.3-0.1c0.1,0,0.2-0.1,0.3-0.1c0.2,0,0.4,0,0.7,0
			c0.2,0,0.4,0,0.6,0c0.2-0.1,0.4-0.1,0.5-0.2c-0.4-0.1-0.8-0.2-1.2-0.4C31.8,16,31.6,16,31.4,16c-0.2,0-0.4,0-0.7,0
			c0-0.1,0-0.3-0.1-0.5h-0.1v0c-0.1,0.6-0.2,1.3-0.1,1.9c0,0.6,0,1.2,0,1.8c0,0.4,0,0.8,0,1.1l-1.8,1.1c-0.1,0-0.2,0.2-0.1,0.3
			c0,0.1,0.1,0.1,0.1,0.1l1.7,0.7c0,0.6,0,1.2,0,1.8l-2,1.3c-0.1,0-0.2,0.2-0.1,0.3c0,0.1,0.1,0.1,0.1,0.1l1.9,0.8l-5.8,5.8
			c-0.1,0-0.8,0-0.9,0.1c-0.1,0.1-0.2,0.3-0.1,0.4c0.1,0.2,0.3,0.3,0.5,0.4c0.1,0.1,0.2,0.1,0.3,0.1c0,0,0,0,0,0
			c0.5,1.1,1.5,2,2.8,2.3h0c0,0,0.1,0,0,0.1c0,0,0,0,0,0c0,0,0,0-0.1,0c-2.1-0.1-4.3-0.4-6.4-0.7c-0.8-0.1-1.6-0.2-2.4-0.3
			c-0.5-0.1-1.1-0.1-1.6-0.2c-0.1,0-0.1,0-0.1-0.1l0,0c0,0,0,0,0,0v0h0c0,0,0,0,0,0c0,0,0,0,0,0c3-0.8,3.6-2.8,3.6-2.8
			c0,0,0.1,0,0.1-0.1c0.1,0,0.2-0.1,0.2-0.1c0.2-0.1,0.4-0.2,0.5-0.4c0.1-0.1,0-0.3-0.1-0.4c-0.1-0.1-1-0.1-1-0.1h0h-0.1
			c0-0.4,0-1.5,0-2.2c0.1,0,0.2,0,0.3,0c0.1,0,0.2-0.1,0.3-0.1c0.2,0,0.5,0,0.7,0c0.2,0,0.4,0.1,0.7,0c0.2,0,0.4-0.1,0.5-0.3
			c-0.4-0.1-0.8-0.2-1.2-0.4c-0.2-0.1-0.4-0.1-0.7-0.1c-0.2,0-0.5,0-0.7,0.1c0-0.2,0-0.3,0-0.4h-0.1c-0.1,1.2-0.1,2.3-0.1,3.5
			l-1.5,0c0-1.5-0.1-3.4-0.2-4.7l1.3-2.5c0.2,0.1,0.4,0.1,0.6,0.1c0.2,0.1,0.4,0.2,0.5,0.3c0.2,0.1,0.3,0.2,0.5,0.3
			c0.2,0,0.4,0.1,0.6,0c-0.3-0.2-0.6-0.5-0.8-0.9c-0.1-0.2-0.3-0.3-0.5-0.4c-0.2-0.1-0.4-0.2-0.6-0.3c0.1-0.1,0.1-0.3,0.1-0.4
			c0,0,0,0,0-0.1c0,0,0,0,0,0c-0.1,0-0.1,0-0.1,0.1C19.1,22.8,19,22.9,19,23l-1.4,2.7c0-0.4,0-0.8,0-1.3c0-0.5,0-1.1-0.1-1.6h-0.1
			c-0.1,0.6-0.1,1.3-0.1,1.9c0,0.6,0,1.2,0,1.7L14.8,31l-2.1-4.7c0-0.6,0-1.2,0-1.7c0-0.7,0-1.3-0.1-2h-0.1
			c-0.1,0.6-0.1,1.3-0.1,1.9c0,0.6,0,1.2,0,1.8l-0.7,1.5l-1.7-3.5c0-0.6,0-1.2,0-1.7l1.5-0.6c0.1,0,0.1-0.1,0.1-0.2
			c0,0-0.1-0.1-0.1-0.1c0,0-1.3-0.8-1.6-1c0-1.2,0-2.4,0-3.6c0.1,0,0.2,0,0.3-0.1c0.1,0,0.2-0.1,0.3-0.1c0.2,0,0.4,0,0.7,0
			c0.2,0,0.4,0,0.6,0c0.2-0.1,0.3-0.1,0.5-0.2c-0.4-0.1-0.8-0.2-1.2-0.4c-0.2-0.1-0.4-0.1-0.6-0.2c-0.2,0-0.5,0-0.7,0
			c0-0.2,0-0.3-0.1-0.5H9.5c-0.1,0.8-0.2,1.5-0.1,2.3c0,0.8,0,1.5,0,2.2c0,0.1,0,0.3,0,0.4l-1.6,1c-0.1,0-0.1,0.1-0.1,0.2
			c0,0,0.1,0.1,0.1,0.1l1.5,0.6c0,0.6,0,1.6,0,1.7l-3.1,6.5l-0.5-1.5h0.6c0.1,0,0.2,0,0.3-0.1c0.1,0,0.2-0.1,0.2-0.1
			S6.7,29,6.6,28.9c-0.1,0-0.2-0.1-0.3-0.1H5.6l-0.3-1c0-0.4,0-0.9,0-1.3L7,25.9c0.1,0,0.2-0.2,0.1-0.3c0-0.1-0.1-0.1-0.1-0.1
			c0,0-1.6-1-1.8-1.1c0-0.3,0-0.7,0-1l1.5-0.7c0.1,0,0.1-0.1,0.1-0.2c0,0-0.1-0.1-0.1-0.1c0,0-1.4-0.9-1.6-1c0-1,0-1.7,0-1.8
			c0.2,0,0.4-0.1,0.5-0.1c0.2,0,0.4,0,0.6,0c0.2,0,0.4,0,0.6,0c0.2,0,0.3-0.1,0.5-0.2c-0.4-0.1-0.7-0.2-1-0.4
			c-0.2-0.1-0.4-0.1-0.6-0.1c-0.2,0-0.4,0-0.6,0c0-0.1,0-0.3-0.1-0.4H5c-0.1,0.5-0.1,1.1-0.1,1.7c0,0.5,0,0.8,0,1.3l-1.6,1
			c-0.1,0-0.1,0.1-0.1,0.2c0,0,0.1,0.1,0.1,0.1l1.5,0.7c0,0.3,0,0.7,0,1L3,25.5c-0.1,0-0.2,0.2-0.1,0.3c0,0.1,0.1,0.1,0.1,0.1
			l1.7,0.7c0,0.4,0,0.8,0,1.3l-0.3,1H3.7c-0.1,0-0.2,0-0.3,0c-0.1,0-0.2,0.1-0.2,0.1s0.1,0.1,0.2,0.1c0.1,0,0.2,0.1,0.3,0.1h0.6
			l-0.5,1.8H2.9c-0.5-1.7-0.8-3.5-0.9-5.4c-0.1-1.8,0-3.6,0.3-5.4c0.3-1.7,0.7-3.3,1.3-4.9c0.6-1.5,1.3-3,2.2-4.3
			c0.5-0.7,1-1.4,1.6-2.1c1.7,0.4,3.6,0.4,5.3,0.1c1.8-0.3,3.6-0.4,5.4-0.2l0.5,0.1c0-0.3,0.1-0.5,0.2-0.8c-2-0.5-4-0.6-6-0.4
			c-1.3,0.2-2.5,0-3.7-0.5c0.7-0.7,1.4-1.3,2.2-1.8c0.9,0.5,1.9,0.9,3,1c0.7,0.1,1.4,0.2,2,0.3c0.7,0.1,1.4,0.3,2,0.5
			c0.2,0.1,0.5,0.2,0.7,0.3c0.1-0.3,0.3-0.5,0.5-0.7L19,6.5c-0.8-0.4-1.7-0.7-2.6-0.9c-0.6-0.2-1.2-0.4-1.8-0.6
			c-0.5-0.2-0.9-0.5-1.3-0.9c0.8-0.5,1.7-0.8,2.6-1.2c0.7,0.7,1.5,1.3,2.4,1.7c0.6,0.5,1.2,1,1.7,1.6c0.2-0.2,0.5-0.3,0.8-0.4
			c-0.4-0.9-1-1.7-1.7-2.4c-0.4-0.3-0.7-0.7-1-1.2c1-0.2,2-0.4,3-0.4l0.5,3.8c0.1,0,0.3,0,0.5,0c0.2,0,0.3,0,0.5,0l0.5-3.8
			c0.7,0,1.4,0.1,2.1,0.2c0.5,0.1,0.9,0.2,0.9,0.2c-0.2,0.5-0.5,0.9-0.9,1.2c-0.7,0.7-1.3,1.5-1.7,2.4C23.5,6,23.8,6.1,24,6.3
			c0.5-0.6,1-1.2,1.6-1.6c0.9-0.5,1.7-1.1,2.4-1.7c0.6,0.2,1.2,0.5,1.8,0.8l0.8,0.4c-0.4,0.3-0.9,0.6-1.3,0.9
			c-0.6,0.3-1.2,0.5-1.8,0.6c-0.9,0.2-1.8,0.5-2.6,0.9l-0.4,0.2C24.7,7,24.9,7.2,25,7.4c0.2-0.1,0.5-0.2,0.7-0.3
			c0.7-0.2,1.3-0.4,2-0.5c0.7-0.1,1.4-0.2,2-0.3c1.1-0.1,2.1-0.5,3-1c0.8,0.6,1.5,1.2,2.2,1.8c-1.2,0.5-2.4,0.7-3.7,0.5
			c-2-0.2-4-0.1-6,0.4c0.1,0.3,0.2,0.5,0.2,0.8L26,8.7c1.8-0.2,3.6-0.1,5.3,0.3c1.7,0.4,3.6,0.3,5.3-0.1c0.2,0.3,0.5,0.5,0.7,0.8
			c1,1.3,1.8,2.7,2.5,4.1c0.7,1.5,1.3,3.1,1.6,4.7c0.4,1.7,0.6,3.4,0.6,5.2C42.1,25.7,41.9,27.6,41.5,29.5"/>
	</g>
</g>
</svg>
