<?xml version="1.0" encoding="UTF-8"?>
<svg id="Capa_1" data-name="Capa 1" xmlns="http://www.w3.org/2000/svg" viewBox="0 0 713.47 425.96">
  <defs>
    <style>
      .cls-1 {
        isolation: isolate;
      }

      .cls-1, .cls-2, .cls-3, .cls-4, .cls-5, .cls-6, .cls-7, .cls-8, .cls-9, .cls-10, .cls-11, .cls-12, .cls-13, .cls-14, .cls-15 {
        stroke-width: 0px;
      }

      .cls-1, .cls-16 {
        opacity: .3;
      }

      .cls-2 {
        fill: #815fb6;
      }

      .cls-4 {
        fill: #e0e0e0;
      }

      .cls-5 {
        fill: #f5f5f5;
      }

      .cls-6 {
        fill: none;
      }

      .cls-7 {
        fill: #fff;
      }

      .cls-8 {
        fill: #fafafa;
      }

      .cls-9 {
        fill: #263238;
      }

      .cls-10 {
        fill: #8a4a43;
      }

      .cls-11 {
        fill: #b56760;
      }

      .cls-12 {
        fill: #ebebeb;
      }

      .cls-13 {
        fill: #ff9a6c;
      }

      .cls-14 {
        fill: #455a64;
      }

      .cls-15 {
        fill: #ffbf9d;
      }
    </style>
  </defs>
  <g id="freepik--background-complete--inject-2">
    <rect class="cls-8" x="23.99" y="45.67" width="147.57" height="132.02"/>
    <path class="cls-4" d="M171.56,177.69v-9.53c0-6.2-.05-15.26-.09-26.8,0-23.06-.1-56-.17-95.69l.34.33-147.56.06h0l.4-.39c0,48,0,93.22-.05,132l-.35-.35,106.73.17,30.1.1h10.77-10.57l-30,.09-106.95.17h-.35V45.11h.4l147.56.06h.33v.34c-.07,39.75-.13,72.79-.17,95.9,0,11.51-.07,20.55-.09,26.73v7c0,1.6-.28,2.55-.28,2.55Z"/>
    <path class="cls-4" d="M80.57,69.12c0,.22-7.76.4-17.34.4s-17.35-.18-17.35-.4,7.76-.39,17.35-.39,17.34.22,17.34.39Z"/>
    <path class="cls-4" d="M143.1,79.04c0,.21-21.34.39-47.66.39s-47.65-.18-47.65-.39,21.33-.4,47.65-.4,47.66.18,47.66.4Z"/>
    <rect class="cls-4" x="46.13" y="95.83" width="6.22" height="6.22"/>
    <rect class="cls-4" x="61.44" y="95.83" width="6.22" height="6.22"/>
    <rect class="cls-4" x="77.02" y="95.54" width="6.22" height="6.22"/>
    <rect class="cls-4" x="92.04" y="95.83" width="6.22" height="6.22"/>
    <rect class="cls-4" x="107.35" y="95.83" width="6.22" height="6.22"/>
    <rect class="cls-4" x="122.65" y="95.83" width="6.22" height="6.22"/>
    <rect class="cls-12" x="137.95" y="95.83" width="6.22" height="6.22"/>
    <rect class="cls-12" x="46.13" y="109.04" width="6.22" height="6.22"/>
    <rect class="cls-4" x="61.44" y="109.04" width="6.22" height="6.22"/>
    <rect class="cls-12" x="76.74" y="109.04" width="6.22" height="6.22"/>
    <rect class="cls-4" x="92.04" y="109.04" width="6.22" height="6.22"/>
    <rect class="cls-4" x="107.35" y="109.04" width="6.22" height="6.22"/>
    <rect class="cls-4" x="122.93" y="108.76" width="6.22" height="6.22"/>
    <rect class="cls-4" x="137.95" y="109.04" width="6.22" height="6.22"/>
    <rect class="cls-4" x="46.13" y="122.26" width="6.22" height="6.22"/>
    <rect class="cls-4" x="61.72" y="121.98" width="6.22" height="6.22"/>
    <rect class="cls-4" x="76.74" y="122.26" width="6.22" height="6.22"/>
    <rect class="cls-12" x="92.04" y="122.26" width="6.22" height="6.22"/>
    <rect class="cls-4" x="107.35" y="122.26" width="6.22" height="6.22"/>
    <rect class="cls-4" x="122.65" y="122.26" width="6.22" height="6.22"/>
    <rect class="cls-4" x="137.95" y="122.26" width="6.22" height="6.22"/>
    <rect class="cls-4" x="46.13" y="135.48" width="6.22" height="6.22"/>
    <rect class="cls-4" x="61.44" y="135.48" width="6.22" height="6.22"/>
    <rect class="cls-4" x="76.74" y="135.48" width="6.22" height="6.22"/>
    <rect class="cls-4" x="92.32" y="135.19" width="6.22" height="6.22"/>
    <rect class="cls-4" x="107.35" y="135.48" width="6.22" height="6.22"/>
    <rect class="cls-12" x="122.65" y="135.48" width="6.22" height="6.22"/>
    <rect class="cls-4" x="137.95" y="135.48" width="6.22" height="6.22"/>
    <rect class="cls-4" x="46.13" y="148.69" width="6.22" height="6.22"/>
    <rect class="cls-12" x="61.44" y="148.69" width="6.22" height="6.22"/>
    <rect class="cls-4" x="76.74" y="148.69" width="6.22" height="6.22"/>
    <rect class="cls-4" x="92.04" y="148.69" width="6.22" height="6.22"/>
    <rect class="cls-4" x="107.35" y="148.69" width="6.22" height="6.22"/>
    <rect class="cls-4" x="122.93" y="148.41" width="6.22" height="6.22"/>
    <rect class="cls-4" x="137.95" y="148.69" width="6.22" height="6.22"/>
    <rect class="cls-4" x="696.1" y="57.29" width="7.11" height="152.89"/>
    <rect class="cls-5" x="592.95" y="58.47" width="102.07" height="151.92" rx=".1" ry=".1"/>
    <path class="cls-12" d="M696.1,211.57h-104.23c-.05,0-.1-.03-.11-.09,0,0,0,0,0-.01V57.39c0-.06.05-.1.11-.1h104.23c.05,0,.1.05.1.1v154.08c0,.06-.04.1-.1.1ZM594.23,209.21h99.5c.06,0,.1-.04.1-.1V59.76s-.03-.09-.08-.1c0,0-.01,0-.02,0h-99.5c-.06,0-.1.04-.1.1v149.35c0,.05.05.1.1.1Z"/>
    <rect class="cls-7" x="603.22" y="67.85" width="81.69" height="133.07" rx=".1" ry=".1"/>
    <rect class="cls-12" x="621.05" y="105.57" width="45.87" height="53.76" rx=".06" ry=".06"/>
    <path class="cls-4" d="M663.29,152.76c.06.17-2.21,1.16-6.52.66-2.65-.35-5.16-1.35-7.32-2.93-2.93-2.18-4.96-5.37-5.69-8.95-.86-4.56.81-9.24,4.36-12.23.98-.82,2.09-1.48,3.29-1.93,1.32-.49,2.73-.65,4.13-.48,1.53.16,2.98.79,4.13,1.81,1.31,1.23,1.92,3.03,1.62,4.8-.31,1.58-1.1,3.02-2.26,4.13-1.02,1.01-2.19,1.87-3.46,2.54-2.53,1.41-5.35,2.22-8.24,2.36-3.06.17-6.1-.52-8.79-2-2.77-1.54-5.02-3.87-6.46-6.7-1.5-2.89-1.91-6.22-1.16-9.39.73-3.06,2.47-5.78,4.94-7.73,1.24-.96,2.64-1.67,4.15-2.09,1.52-.41,3.12-.46,4.67-.15,1.64.31,3.13,1.15,4.24,2.39,1.07,1.27,1.66,2.87,1.66,4.53.01,1.51-.37,2.99-1.11,4.31-.68,1.2-1.56,2.26-2.61,3.15-1.9,1.59-4.12,2.77-6.5,3.45-2.22.65-4.55.83-6.84.53-2.13-.29-4.17-1.07-5.95-2.28-3.1-2.04-5.17-5.32-5.68-9-.3-2.75.45-5.51,2.11-7.72.99-1.37,2.33-2.45,3.89-3.11,1.07-.41,1.68-.39,1.71-.29s-.48.38-1.35,1c-1.23.85-2.25,1.96-3,3.26-1.19,1.98-1.63,4.32-1.24,6.59.6,2.95,2.42,5.52,5,7.07,3.16,1.85,6.97,2.21,10.42,1,1.93-.63,3.71-1.65,5.22-3,1.5-1.19,2.39-2.98,2.43-4.89,0-1.79-1.35-3.28-3.13-3.47-1-.17-2.02-.13-3,.14-1.03.31-1.99.82-2.83,1.48-1.79,1.45-3.04,3.45-3.57,5.69-.53,2.3-.22,4.72.87,6.82,1.11,2.16,2.83,3.94,4.94,5.13,2.07,1.14,4.42,1.69,6.79,1.58,2.34-.1,4.62-.73,6.68-1.83.97-.49,1.87-1.13,2.66-1.88.66-.58,1.13-1.35,1.35-2.2.14-.64-.06-1.32-.54-1.77-.62-.55-1.39-.9-2.21-1-.87-.13-1.76-.05-2.6.22-.87.31-1.69.76-2.42,1.33-2.8,2.24-4.21,5.8-3.7,9.36.5,3.01,2.05,5.75,4.37,7.74,1.83,1.52,3.98,2.59,6.29,3.13,3.9.94,6.23.49,6.26.82Z"/>
    <rect class="cls-5" x="115.33" y="262.25" width="48.65" height="12.87"/>
    <rect class="cls-5" x="228.82" width="48.65" height="12.87"/>
    <path class="cls-4" d="M256.9,26.43v-3.43c0-2.22,0-5.42-.08-9.44l.15.15-48.65.09.25-.24h0v12.85l-.24-.25,34.67.11,10.23.07h3.75-3.63l-10.18.07-34.84.11h-.24v-12.94h0l.25-.25,48.65.09h.15v.15c0,4.06-.06,7.29-.08,9.53v3.13c-.04.07-.1.14-.16.2Z"/>
    <path class="cls-4" d="M680.89,278.12c0-.08,0-.15,0-.23v-3.2c0-2.22,0-5.41-.08-9.44l.15.15-48.65.1.25-.25h0v12.85l-.24-.24,34.67.11,10.23.07h3.75-3.63l-10.18.06-34.84.11h-.24v-13.1h0l.25-.25,48.65.1h.15v.15c0,4.07-.06,7.29-.08,9.53v3.31c-.15.11-.15.18-.16.17Z"/>
    <path class="cls-4" d="M687.49,265.25c0-.08,0-.16,0-.24v-3.27c0-2.25-.06-5.44-.1-9.36l.18.18-29.23.07c-.22.22.3-.3.24-.25h0v12.85l-.23-.23,20.91.11,6.09.06h2.23c-.18.01-.35.01-.53,0h-1.6l-6,.06-21.07.12h-.24v-13.09h0l.25-.25,29.23.07h.18v.18c0,4-.08,7.19-.1,9.47v2.54c0,.62-.2.99-.21.98Z"/>
    <path class="cls-4" d="M434.82,357.95c0-.08,0-.15,0-.23v-3.2c0-2.22,0-5.41-.08-9.44l.15.15-48.65.1.25-.25h0v12.87l-.24-.24,34.67.11,10.23.07h3.75-3.63l-10.18.07-34.84.11h-.24v-.12c0-2.07,0-4.18,0-6.33v-6.57h0l.25-.25,48.65.1h.15v.15c0,4.07-.06,7.29-.08,9.53v3.14c-.15.12-.15.23-.16.23Z"/>
    <path class="cls-4" d="M441.42,345.03c-.01-.08-.01-.17,0-.25v-.68l-.05-2.58c0-2.25,0-5.44-.09-9.36l.18.18-29.23.07c-.23.22.3-.31.24-.25h0v12.85l-.23-.24,20.91.12,6.09.06h2.23c-.18.01-.35.01-.53,0h-1.6l-6,.06-21.07.12h-.24v-13.09h0l.25-.25,29.23.07h.18v.18c0,4-.08,7.19-.1,9.47v2.54c0,.62-.16.99-.17.98Z"/>
    <rect class="cls-5" x="527.72" y="13.33" width="48.65" height="12.87"/>
  </g>
  <g id="freepik--Line--inject-2">
    <path class="cls-9" d="M713.47,425.7c0,.14-159.73.26-356.72.26s-356.75-.12-356.75-.26,159.69-.26,356.75-.26,356.72.11,356.72.26Z"/>
  </g>
  <g id="freepik--Board--inject-2">
    <rect class="cls-7" x="252.95" y="54.55" width="315.9" height="261.5"/>
    <path class="cls-9" d="M568.85,316.05c0-1.83-.09-103.91-.22-261.5l.22.22H252.98l.26-.26v261.5l-.23-.24,315.9.24-315.9.23h-.23V54.25h316.38v.22c-.22,157.67-.31,259.75-.31,261.58Z"/>
    <path class="cls-4" d="M532.54,125.15c0,.14-56.64.26-126.48.26s-126.48-.12-126.48-.26,56.62-.26,126.48-.26,126.48.12,126.48.26Z"/>
    <path class="cls-4" d="M532.54,153.08c0,.15-56.64.26-126.48.26s-126.48-.11-126.48-.26,56.62-.26,126.48-.26,126.48.13,126.48.26Z"/>
    <path class="cls-4" d="M532.54,181.01c0,.15-56.64.26-126.48.26s-126.48-.11-126.48-.26,56.62-.26,126.48-.26,126.48.12,126.48.26Z"/>
    <path class="cls-4" d="M532.54,208.95c0,.14-56.64.26-126.48.26s-126.48-.12-126.48-.26,56.62-.26,126.48-.26,126.48.11,126.48.26Z"/>
    <path class="cls-4" d="M532.54,236.88c0,.14-56.64.26-126.48.26s-126.48-.12-126.48-.26,56.62-.26,126.48-.26,126.48.11,126.48.26Z"/>
    <path class="cls-4" d="M532.54,264.81c0,.14-56.64.26-126.48.26s-126.48-.12-126.48-.26,56.62-.26,126.48-.26,126.48.12,126.48.26Z"/>
    <rect class="cls-14" x="434.9" y="211.34" width="25.2" height="81.14"/>
    <rect class="cls-14" x="482.49" y="184.53" width="25.2" height="107.95"/>
    <rect class="cls-14" x="302.24" y="254.5" width="25.2" height="37.98"/>
    <rect class="cls-14" x="343.93" y="243.17" width="25.2" height="49.31"/>
    <rect class="cls-14" x="387.14" y="228.82" width="25.2" height="63.66"/>
    <rect class="cls-9" x="243.28" y="49.77" width="335.35" height="19.27" rx="8.71" ry="8.71"/>
    <path class="cls-9" d="M534.84,292.48h-4.57l-13.08.05-48.1.08-158.72.13h-31.62v-.26c0-54.64.06-102.92.08-137.54,0-17.31.06-31.2.08-40.77v-14.85,3.85c0,2.51,0,6.21.05,11,0,9.57,0,23.46.08,40.77,0,34.62.05,82.9.08,137.54l-.25-.26h31.5l158.72.08,48.1.08,13.08.05h3.41l1.16.05Z"/>
    <path class="cls-2" d="M446.69,204.95s-.13.14-.4.39l-1.22,1.13-4.7,4.3c-4.13,3.72-10.09,9.09-17.45,15.74l-58,52-.19.16-.17-.17-2.19-2.21-28.52-29.21h.33l-39.64,33.74-11.4,9.65-3.05,2.55-.79.65-.28.21c.08-.09.17-.17.26-.24l.76-.68,3-2.61,11.3-9.75,39.53-33.88.17-.15.16.16,28.53,29.22,2.18,2.23h-.36l58.1-51.91,17.57-15.62,4.78-4.22,1.26-1.09c.28-.27.43-.39.43-.39Z"/>
    <line class="cls-6" x1="457.78" y1="157.66" x2="491.25" y2="186.17"/>
    <line class="cls-6" x1="452.33" y1="163.84" x2="485.79" y2="192.36"/>
    <circle class="cls-7" cx="515.7" cy="124.57" r="11.99" transform="translate(35.58 350.29) rotate(-38.76)"/>
    <path class="cls-9" d="M291.52,114.04c-2.08.27-4.17.36-6.26.27-2.09.09-4.18,0-6.26-.27,2.08-.26,4.17-.34,6.26-.26,2.09-.08,4.18,0,6.26.26Z"/>
    <path class="cls-9" d="M291.52,140.62c-2.08.26-4.17.34-6.26.26-2.09.08-4.18,0-6.26-.26,2.08-.26,4.17-.35,6.26-.26,2.09-.09,4.18,0,6.26.26Z"/>
    <path class="cls-9" d="M291.52,167.19c-2.08.26-4.17.34-6.26.26-2.09.08-4.18,0-6.26-.26,2.08-.26,4.17-.34,6.26-.26,2.09-.08,4.18,0,6.26.26Z"/>
    <path class="cls-9" d="M291.52,193.76c-2.08.26-4.17.35-6.26.26-2.09.09-4.18,0-6.26-.26,2.08-.26,4.17-.34,6.26-.26,2.09-.08,4.18,0,6.26.26Z"/>
    <path class="cls-9" d="M291.52,220.34c-2.08.26-4.17.34-6.26.26-2.09.08-4.18,0-6.26-.26,2.08-.26,4.17-.35,6.26-.26,2.09-.09,4.18,0,6.26.26Z"/>
    <path class="cls-9" d="M291.52,246.95c-2.08.26-4.17.34-6.26.26-2.09.08-4.18,0-6.26-.26,2.08-.26,4.17-.34,6.26-.26,2.09-.08,4.18,0,6.26.26Z"/>
  </g>
  <g id="freepik--character-3--inject-2">
    <path class="cls-9" d="M571.37,260.18c-7.1.68-12.42,11.68-10.93,17.55.73,2.85,2.28,6.07.1,8.38s-7,2.47-9.09,4.81c0,0-2.62,3-2,6.64s.34,8.52-2.47,10l14.8,4.11c1.38-1.61,1.8-4,3.18-5.65-1.59,1.71-2.83,7.46,4.94,7.53l4.47-4.6c13.37,2.42,27.46,5.61,37.53-.86"/>
    <path class="cls-9" d="M640.55,286.95c-1.15-2.66-2.89-5.07-3.75-7.84-1.85-5.95.48-13.05-3-18.24-2.45-3.7-7.09-5.19-11.43-6.11s-8.45-1.33-11.88-4.14c-2.52-2.07-4.12-5.07-6.63-7.14-3.57-3-8.52-3.61-13.15-3.47s-9.61,1-13.67,3.52-7.24,6.73-7.57,11.47c-.16,2.32.34,4.68-.18,6.95-.57,2.48-2.29,4.54-3.26,6.9-1.97,5.2-.17,11.08,4.38,14.29l36.32,39c7.06,1.95,13.91-7.34,18.72-12.86s18-15.65,15.1-22.33Z"/>
    <path class="cls-15" d="M570.81,277.69c.46-9.65,6.68-21.57,16.3-20.7l30.1,7.14c2.92.27,4.64,2.47,4.62,5.4l-1.63,72.63h.21s-6.49,20.52-26.42,14.62c-4-1.17-5.59.3-6.45-4.1h0c-.86-.28,0,0,0-.53-.33-5.43-.74-16.63-.74-16.63h0c-.16-5.84-.19-8.23-.19-8.18s-12.35-1.86-15.14-17.9c-1.39-7.93-1.18-21.04-.66-31.75Z"/>
    <path class="cls-9" d="M595.53,289.87c0,1.11.89,2.02,2,2.05,1.1.06,2.04-.79,2.1-1.89-.01-1.11-.89-2.01-2-2.05-1.1-.06-2.04.79-2.1,1.89Z"/>
    <path class="cls-9" d="M574.21,290.2c0,1.11.89,2.02,2,2.05,1.1.06,2.04-.79,2.1-1.89,0-1.11-.89-2.02-2-2.05-1.1-.06-2.04.79-2.1,1.89Z"/>
    <path class="cls-9" d="M573.23,284.86c.26.35,2-1,4.47-.89s4.09,1.62,4.38,1.29c.13-.15-.11-.78-.84-1.47-1.96-1.82-4.95-1.96-7.06-.32-.81.63-1.08,1.23-.95,1.39Z"/>
    <path class="cls-9" d="M595.27,285.27c.31.32,2.06-1.21,4.63-1.33s4.52,1.15,4.79.8c.13-.16-.2-.74-1.05-1.34-1.13-.77-2.49-1.14-3.85-1.06-1.36.06-2.65.59-3.67,1.48-.75.69-1.01,1.31-.85,1.45Z"/>
    <path class="cls-9" d="M587.74,301.12c-1.17-.36-2.39-.56-3.61-.6-.56-.05-1.1-.15-1.2-.54-.06-.58.07-1.17.35-1.68l1.61-4.34c2.24-6.17,3.85-11.25,3.6-11.33s-2.27,4.84-4.5,11l-1.54,4.37c-.35.69-.44,1.47-.26,2.22.17.4.52.7.94.82.33.08.66.12,1,.12,1.2.13,2.41.12,3.61-.04Z"/>
    <path class="cls-13" d="M586.6,327.38c7.57,0,14.98-2.09,21.43-6.05,0,0-5.23,11.84-21.34,10.57l-.09-4.52Z"/>
    <path class="cls-2" d="M588.76,306.45c.86-1.09,2.23-1.66,3.61-1.5.99.08,1.91.55,2.54,1.32.62.75.7,1.8.21,2.64-.71.83-1.86,1.13-2.89.77-1.06-.37-2.04-.96-2.86-1.73-.25-.17-.47-.39-.64-.64-.17-.25-.17-.58,0-.83"/>
    <path class="cls-9" d="M594.29,302.56c-.36,0-.33,2.39-2.36,4.13s-4.6,1.51-4.62,1.84c0,.16.58.46,1.66.48,1.41,0,2.78-.5,3.86-1.41,1.03-.87,1.69-2.11,1.83-3.46.07-1.01-.2-1.6-.37-1.58Z"/>
    <path class="cls-9" d="M594.79,277.75c.23.6,2.44.28,5,.56s4.72.95,5.06.41c.15-.27-.22-.83-1.08-1.4-2.32-1.41-5.16-1.68-7.7-.73-.91.36-1.38.88-1.28,1.16Z"/>
    <path class="cls-9" d="M573.37,276.84c.45.5,2.19-.05,4.29-.1s3.88.28,4.28-.25c.18-.26-.11-.76-.89-1.23-1.07-.57-2.28-.84-3.5-.77-1.21.03-2.4.39-3.41,1.06-.77.53-1.01,1.05-.77,1.29Z"/>
    <path class="cls-9" d="M649.79,283.14c-1.72-2.68,1-6-1.54-8.42-2.29-2.19-7.87-1.87-10-4.12-1.69-1.75-1.8-2.24-2-4-.22-2.19-1.89-11.35-15.5-12.24l-1.27,8.59c-.87-.33-1.76-.61-2.65-.86-11.28-3.21-22.89-5.06-34.61-5.52-1.23,2.51.4,5.61,2.73,7.14s5.19,2,7.88,2.69,5.49,2,6.8,4.46.72,5.93,2,8.62c2.16,4.62,9,5.55,11.1,10.18,1.61,3.51-.13,7.56-.31,11.41-.16,4.44,1.78,8.7,5.25,11.49,2.71,2.14,7.33,6,7.56,5.17l34.41-25.21c1.73-5.26-7.5-5.71-9.85-9.38Z"/>
    <path class="cls-9" d="M623.78,315.95c-1.09-.13-2.16-.41-3.18-.84-7.24-2.95-11.2-10.78-9.29-18.36.29-1.22.66-2.45.86-3.72.25-1.27.19-2.59-.16-3.84-.4-1.27-1.3-2.32-2.5-2.9-1.29-.58-2.63-1.04-4-1.37-1.44-.34-2.76-1.06-3.82-2.09-.93-1.1-1.51-2.46-1.66-3.89-.41-2.7-.15-5.42-1.23-7.61l-.2-.4-.26-.37c-.16-.24-.35-.47-.55-.67-.42-.39-.89-.73-1.4-1-1.01-.49-2.08-.85-3.19-1.07-2.07-.29-4.09-.87-6-1.72-1.53-.81-2.87-1.93-3.95-3.28-.81-1.01-1.46-2.15-1.92-3.36-.29-.76-.49-1.55-.61-2.36-.05-.28-.07-.57-.06-.85.18,1.07.46,2.13.86,3.14.5,1.18,1.17,2.27,2,3.25,1.07,1.29,2.4,2.36,3.89,3.13,1.88.81,3.85,1.36,5.88,1.63,1.15.22,2.26.58,3.31,1.09.55.29,1.07.65,1.52,1.08.22.23.43.48.61.74l.28.39.22.43c1.17,2.38.89,5.13,1.3,7.76.14,1.33.68,2.59,1.54,3.61,1,.95,2.24,1.62,3.59,1.94,1.4.34,2.76.81,4.07,1.41.65.33,1.23.78,1.72,1.32.46.56.8,1.2,1,1.89.37,1.32.43,2.72.17,4.07-.22,1.31-.59,2.54-.88,3.75-1.93,7.4,1.86,15.09,8.9,18.06.74.32,1.5.59,2.28.8.29.05.58.12.86.21Z"/>
    <path class="cls-9" d="M573.05,260.86c-.82-.13-1.64-.22-2.47-.26-2.26-.04-4.47.57-6.39,1.76-2.82,1.81-4.71,4.77-5.16,8.09-.21,1.96-.14,3.93.2,5.87.15,1,.34,2.05.52,3.11.21,1.09.25,2.21.12,3.31-.12,1.17-.75,2.23-1.73,2.88-.97.52-2.04.8-3.14.81-1,.03-1.98.18-2.94.46-.89.31-1.71.8-2.41,1.42-1.34,1.15-2.19,2.77-2.4,4.52-.12,1.54,0,3.1.37,4.6.29,1.26.51,2.54.65,3.83.1.98.06,1.98-.14,2.95-.12.62-.34,1.21-.65,1.75-.08.14-.17.28-.27.41-.06.08-.1.13-.11.12.4-.72.68-1.5.83-2.31.15-.96.17-1.93.05-2.89-.17-1.28-.41-2.54-.72-3.79-.4-1.54-.55-3.13-.44-4.72.21-1.87,1.12-3.6,2.55-4.83.75-.68,1.62-1.2,2.57-1.54.99-.3,2.02-.47,3.06-.5,1.01,0,2.01-.26,2.9-.73.85-.58,1.4-1.51,1.49-2.53.29-2.1-.37-4.21-.62-6.27-.35-1.98-.41-4-.18-6,.49-3.45,2.48-6.51,5.45-8.34,1.98-1.2,4.28-1.78,6.59-1.65.62.04,1.24.13,1.84.27.2.05.39.11.58.2Z"/>
    <path class="cls-14" d="M643.48,303.82s0-.09.07-.25c.09-.24.15-.49.2-.74.19-.97.15-1.97-.1-2.92-.38-1.51-1.25-2.86-2.47-3.84-.75-.6-1.64-1.01-2.59-1.2-1-.21-2.12-.22-3.25-.52-1.23-.29-2.26-1.14-2.78-2.29-.52-1.22-.78-2.54-.75-3.87.05-1.39-.03-2.78-.25-4.16-.14-.72-.42-1.4-.83-2-.43-.59-.99-1.08-1.63-1.43-1.4-.65-2.9-1.07-4.44-1.23-1.64-.18-3.24-.64-4.72-1.37-.75-.42-1.4-1.01-1.88-1.73-.46-.73-.8-1.54-1-2.38-.45-1.68-.58-3.42-1-5.1-.91-3.32-3.46-5.93-6.75-6.93-1.57-.37-3.19-.53-4.81-.45-.8,0-1.6-.09-2.38-.26-.78-.18-1.5-.54-2.11-1.05-1.04-1.1-1.82-2.41-2.3-3.84-.55-1.25-1.35-2.37-2.34-3.31-1.83-1.71-4.21-2.72-6.72-2.84-2.07-.08-4.1.52-5.8,1.71-1.28.89-2.36,2.04-3.16,3.38-.5.85-.88,1.77-1.11,2.73-.09.32-.11.58-.15.75l-.06.26c.02-.34.07-.67.15-1,.21-.97.57-1.91,1.06-2.77.79-1.37,1.87-2.55,3.16-3.47,1.72-1.23,3.8-1.86,5.92-1.79,2.57.11,5.01,1.13,6.89,2.88,1.03.98,1.85,2.16,2.41,3.47.46,1.39,1.22,2.66,2.23,3.73,1.25.91,2.77,1.34,4.31,1.23,1.64-.08,3.29.08,4.89.46,3.41,1.01,6.06,3.71,7,7.14.45,1.72.58,3.47,1,5.11.21.81.54,1.58,1,2.28.45.68,1.06,1.24,1.77,1.64,2.88,1.58,6.36,1.1,9.14,2.61.66.37,1.23.88,1.67,1.49.42.63.72,1.33.87,2.07.22,1.39.3,2.8.24,4.21-.03,1.29.21,2.58.71,3.77.25.55.62,1.04,1.08,1.42.45.36.97.62,1.53.76,1.09.3,2.2.32,3.23.54.98.2,1.89.63,2.67,1.26,1.24,1.01,2.1,2.4,2.47,3.95.24.99.24,2.01,0,3-.05.25-.13.5-.23.74-.02.05-.04.1-.06.15Z"/>
    <path class="cls-2" d="M596.69,425.58h78.21l-6.87-17.12s-24.51-66.91-29.58-72.33c-6.65-7.1-17.64-12.8-17.64-12.8l-33.84,17.11s-9.81,27.87-11.12,38.85c-.31,2.62-.49,5.25-.53,7.88-.2,13.72,8.05,26.15,20.76,31.31h0l.61,7.1Z"/>
    <path class="cls-15" d="M589.37,318.25l-3.74,4.11s.58-7.94-.37-8.89-2.22,0-2.22,0c-.31-.95-1.09-1.67-2.06-1.91-1.17-.11-2.35.17-3.34.8,0,0-3.17-2-4.92-.85-.94.58-1.76,1.35-2.38,2.27-1.17.28-2.25.82-3.17,1.59-.51.44-.94.96-1.27,1.54,0,0-1.9.68-1.9,2s-2.07,14-2.54,18.73-1.58,12.12-1.58,12.12l19.15-.34s.27-9.9.62-11.09c2.27-1.06,4.27-2.64,5.83-4.6,2.7-3.33,4.73-8.41,6.18-10.85.87-1.47,3.36-5.64,3.37-6,0-1.14-1.28-1.49-2.38-1.22s-2.28,1.72-3.28,2.59Z"/>
    <path class="cls-13" d="M589.37,318.25c.13-.17.27-.32.42-.47.29-.3.69-.77,1.29-1.31.33-.31.71-.57,1.11-.78.51-.24,1.08-.32,1.63-.23.32.04.63.17.88.37.27.23.43.57.44.93-.08.35-.22.69-.41,1l-.52,1c-.73,1.31-1.57,2.75-2.48,4.3s-1.69,3.35-2.65,5.2c-.98,2.01-2.16,3.91-3.52,5.67-1.57,1.95-3.56,3.52-5.82,4.59l.13-.15c-.26,1.63-.3,3.49-.4,5.32s-.13,3.77-.19,5.72v.23h-.24l-19.15.35h-.3v-.3c.14-1.1.3-2.29.45-3.48.36-2.72.69-5.39,1-8,.3-2.65.66-5.24,1-7.77l1.08-7.4c.17-1.2.35-2.39.48-3.55,0-.31,0-.53.09-.9.08-.33.25-.62.49-.86.43-.45.95-.79,1.53-1l-.14.13c.26-.44.57-.84.93-1.2.32-.38.69-.71,1.09-1,.8-.49,1.68-.86,2.59-1.08l-.14.1c.48-.67,1.06-1.25,1.73-1.73.29-.24.59-.46.9-.66.34-.21.72-.34,1.11-.37,1.43.01,2.82.44,4,1.24h-.21c.98-.63,2.15-.92,3.31-.83,1.11.19,2.01.99,2.35,2.06l-.26-.09c.51-.39,1.16-.53,1.78-.38.3.09.57.28.75.54.08.13.15.27.18.42.04.13.08.27.1.41.15,1.01.22,2.03.19,3.05,0,1.91-.1,3.58-.21,5l-.18-.07,2.82-3,.74-.77c.16-.18.25-.26.26-.25-.07.1-.14.19-.23.28-.17.21-.4.47-.7.81l-2.73,3.08-.2.23v-.3c.08-1.41.15-3.08.14-5,0-1-.07-2.01-.23-3-.04-.25-.12-.48-.24-.7-.13-.2-.34-.35-.57-.42-.52-.11-1.07.02-1.49.34l-.19.14-.08-.22c-.3-.94-1.1-1.63-2.07-1.8-1.08-.07-2.15.21-3.05.8l-.11.06-.1-.06c-1.12-.74-2.42-1.14-3.76-1.15-.32.03-.64.14-.92.3-.29.2-.58.41-.86.64-.57.45-1.06.98-1.46,1.58l-.06.08h-.09c-.86.21-1.68.54-2.44,1-.37.26-.7.56-1,.9-.32.32-.59.68-.83,1.06l-.06.1h-.08c-.51.19-.96.49-1.35.87-.18.18-.3.4-.36.64-.05.2,0,.57-.08.85-.13,1.18-.3,2.36-.47,3.57-.35,2.4-.7,4.87-1.07,7.4-.36,2.53-.72,5.12-1,7.75s-.7,5.34-1,8.06c-.16,1.2-.31,2.38-.46,3.49l-.26-.3,19.16-.32-.24.23c.07-2,.14-3.86.21-5.72.04-1.82.19-3.63.44-5.43v-.09l.12-.05c2.19-1.04,4.13-2.55,5.67-4.43,1.36-1.74,2.53-3.61,3.51-5.58,1-1.84,1.79-3.61,2.7-5.19s1.79-3,2.53-4.27l.53-.95c.17-.27.3-.57.39-.88-.04-.6-.51-1.07-1.11-1.11-.51-.09-1.04-.02-1.52.18-.4.19-.77.44-1.1.73-1.2,1.2-1.79,1.83-1.86,1.8Z"/>
    <g class="cls-16">
      <path class="cls-3" d="M590.14,401.95l-6.87,6.17c9.7.33,17.92-4.48,25.75-10.22s22.29-18.65,24.9-28c-13.07,7.33-32.46,22.26-43.78,32.05Z"/>
    </g>
    <path class="cls-15" d="M490.57,381.01c-.18,0-13.34-1.48-16.74-1.8-1.03-.11-1.99.49-2.35,1.46-.22.68-.09,1.42,1.13,1.86,3.38,1.22,15.16,2.69,15.16,2.69,0,0-5.26-.38-5.46,1.69s2.41,3.46,2.41,3.46c0,0-1.76.73-1.37,2.25s2.87,2.61,2.87,2.61l1.32.55s-2.18,0-2.22,1.2c.14,1.28,1.09,2.32,2.36,2.56,1.17.27,6.55,1.39,6.55,1.39l3.94-9.43-3-9-4.6-1.49Z"/>
    <path class="cls-15" d="M530.27,386.44s-17.3,1.73-18.63,1.09-15-7.77-17.07-8.34-12.08.23-12.08.23c0,0-2.15,2.3,2.62,3.75,5,1.52,7.77.94,7.14,1.19l-1.19,16s8.47,3.35,12.34,3.08l5.4-1.55,24.57,4.3-3.1-19.75Z"/>
    <path class="cls-15" d="M487.3,385.07c.65.33,1.32.63,2,.89.7.26,1.32.7,1.79,1.28.47.59.57,1.4.25,2.09-.55.71-1.41,1.11-2.31,1.08-1.14.08-2.28,0-3.4-.24"/>
    <path class="cls-13" d="M485.67,390.17c0-.07.72,0,1.86.07.67.01,1.34-.03,2-.12.75-.04,1.42-.48,1.75-1.15.18-.74-.08-1.51-.66-2-.49-.42-1.05-.76-1.65-1-.6-.19-1.16-.5-1.64-.92.6.16,1.2.35,1.78.58.67.22,1.29.55,1.84,1,.74.59,1.06,1.56.82,2.48-.16.47-.5.87-.95,1.09-.38.2-.79.33-1.22.37-.68.07-1.38.07-2.06,0-.65,0-1.28-.13-1.87-.4Z"/>
    <path class="cls-15" d="M487.93,395.79c2.73.3,5.49.18,8.18-.36.83-.17,1.78-.49,2-1.29.16-.67-.11-1.38-.67-1.78-.56-.38-1.2-.63-1.87-.72-2.05-.37-4.12-.6-6.2-.69"/>
    <path class="cls-13" d="M489.37,390.95c1.03-.1,2.07-.1,3.1,0,1.12.06,2.24.2,3.34.42.7.1,1.36.38,1.93.8.3.27.53.61.65,1,.14.41.11.87-.1,1.25-.45.65-1.15,1.08-1.94,1.18-.69.14-1.34.24-2,.32-1.12.13-2.24.19-3.37.17-.76,0-1.51-.07-2.26-.17-.28-.01-.56-.07-.82-.17,0-.09,1.19,0,3.08,0,1.11-.03,2.21-.12,3.31-.28.62-.09,1.27-.2,1.93-.34.63-.07,1.21-.41,1.59-.92.24-.57.06-1.23-.43-1.6-.5-.37-1.08-.62-1.69-.71-1.21-.27-2.34-.41-3.28-.53-1.02-.07-2.04-.21-3.04-.42Z"/>
    <path class="cls-15" d="M491.21,396.2c.56-.12,1.13-.17,1.7-.16.57.02,1.13.23,1.56.61.44.39.61,1,.44,1.56-.28.56-.8.97-1.41,1.12-1.62.46-3.32.6-5,.44"/>
    <path class="cls-13" d="M488.53,399.77c.58-.12,1.16-.17,1.75-.15.63-.03,1.25-.1,1.87-.2.73-.1,1.44-.36,2.07-.74.28-.18.46-.48.5-.81.02-.32-.08-.64-.27-.89-.38-.44-.92-.71-1.5-.75-1-.09-1.73.07-1.74,0,.55-.27,1.16-.38,1.77-.34.71,0,1.38.3,1.85.83.28.34.42.77.4,1.21-.04.48-.3.93-.7,1.2-.7.43-1.48.7-2.3.79-.64.09-1.29.12-1.94.1-.6.02-1.19-.06-1.76-.25Z"/>
    <path class="cls-13" d="M482.25,379.76c.06,0-.05.39,0,1.05.05.4.2.77.45,1.09.36.39.82.68,1.33.83.66.2,1.32.37,2,.49.73.17,1.46.36,2.28.47,1.63.23,3.46.39,5.39.53h.2v.22c.07.39.1.81.21,1.23.44,1.88,1.26,3.65,2.42,5.19.95,1.26,2.06,2.41,3.29,3.4,2.13,1.7,3.7,2.38,3.65,2.47-.39-.1-.76-.25-1.11-.45-.97-.5-1.89-1.08-2.76-1.73-1.3-.97-2.46-2.11-3.45-3.4-1.22-1.59-2.09-3.42-2.55-5.37-.11-.43-.14-.88-.22-1.29l.24.23c-1.94-.14-3.77-.31-5.42-.58-.78-.13-1.55-.31-2.31-.53-.68-.14-1.35-.33-2-.56-.56-.19-1.06-.54-1.43-1-.25-.37-.4-.8-.43-1.24,0-.27.03-.55.1-.81.08-.16.11-.25.12-.24Z"/>
    <polygon class="cls-2" points="563.42 381.18 522.15 385.76 523.98 409.65 573.87 412.46 563.42 381.18"/>
    <g class="cls-16">
      <path class="cls-3" d="M571.49,405.14c-1.13-4.3-2.27-8.6-3.4-12.91-.42-2.11-1.23-4.12-2.38-5.94-1.26-1.74-3.83-5.15-6-4.8l-7.71.95c.27,4,.73,8.26,1.11,12.31.26,4.09,1.69,8.03,4.13,11.33,2.5,3.3,6.43,5.21,10.57,5.14,1.37.03,2.68-.57,3.54-1.64.89-1.28.53-2.96.14-4.44Z"/>
    </g>
    <path class="cls-2" d="M636.04,366.52c-3.56,9.55-43.33,36.68-43.33,36.68,0,0-12.38,7.88-19.57,8-9.29.2-16.94-7.74-17-15.64-.06-10.15-.45-49.38-.45-49.38l25.76-1.18v28.64s19.66-19.23,24.3-24.5c9-10.22,18.11-19.52,25.71-16.28"/>
    <path class="cls-9" d="M631.47,332.88l-1.17-.34c-.48-.12-.97-.19-1.47-.22-.33-.04-.67-.04-1,0-.37,0-.73.04-1.09.1-3.1.45-7.14,2.89-11.39,6.84-2.14,2-4.37,4.29-6.73,6.89l-3.65,4.09c-1.29,1.39-2.65,2.82-4.07,4.27-5.68,5.82-12.19,12.28-19.33,19.31l-.38.37v-29.17l.26.25-25.76,1.19.25-.26c0,5.16.1,10.6.15,16.12.08,9.48.16,18.72.24,27.66v3.33c0,1.1,0,2.22.09,3.28.21,2.12.9,4.17,2,6,2.15,3.59,5.52,6.29,9.5,7.59,1.9.61,3.91.86,5.9.72,1.94-.22,3.84-.68,5.67-1.37,3.52-1.33,6.92-2.95,10.18-4.82,1.57-.86,3.08-1.81,4.54-2.85l4.24-3c2.77-1.96,5.4-3.86,7.9-5.7,7.96-5.7,15.59-11.86,22.85-18.44,1.96-1.8,3.77-3.77,5.39-5.88.24-.32.47-.65.67-1,.16-.24.31-.49.43-.75l.32-.64c-.33.88-.78,1.7-1.34,2.45-1.59,2.16-3.37,4.17-5.33,6-7.21,6.66-14.81,12.87-22.77,18.6-2.49,1.85-5.12,3.76-7.88,5.73l-4.24,3c-1.46,1.05-2.98,2.01-4.56,2.88-3.27,1.89-6.68,3.5-10.21,4.84-1.86.71-3.81,1.19-5.79,1.41-2.05.15-4.12-.1-6.08-.73-4.1-1.32-7.58-4.1-9.79-7.8-1.12-1.9-1.8-4.03-2-6.23-.11-1.13-.07-2.22-.1-3.33v-3.33c-.08-8.93-.17-18.18-.25-27.65-.05-5.52-.1-11-.15-16.12v-.22h.25l25.76-1.17h.26v28.89l-.37-.16c7.15-7,13.68-13.45,19.38-19.24,1.42-1.45,2.78-2.87,4.08-4.25l3.67-4.07c2.37-2.59,4.63-4.91,6.79-6.87,4.29-3.94,8.39-6.37,11.54-6.78.36-.06.73-.09,1.1-.09.33-.03.67-.03,1,0,.5.04,1,.13,1.48.26.62.26,1.01.41,1.01.41Z"/>
    <path class="cls-2" d="M562.17,393.95s.07-.32.3-.84.57-1.28,1-2.19c1.21-2.37,2.58-4.66,4.08-6.86,1.5-2.2,3.14-4.31,4.91-6.3.68-.76,1.25-1.36,1.66-1.76s.64-.6.67-.58c-.62.88-1.3,1.73-2.02,2.53-1.29,1.58-3,3.79-4.76,6.35s-3.19,5-4.19,6.74c-.5,1-1.05,1.97-1.65,2.91Z"/>
    <path class="cls-9" d="M700.49,334.16h0c-3.73-.83-7.43,1.52-8.27,5.25l-18.93,86.17h13.85l18.6-83.18c.81-3.72-1.53-7.4-5.25-8.24Z"/>
    <path class="cls-13" d="M585.72,322.12c.17.94.17,1.9,0,2.84,0,.95-.16,1.9-.49,2.8-.17-.94-.17-1.9,0-2.84,0-.95.16-1.9.49-2.8Z"/>
    <path class="cls-9" d="M581.37,390.89c-.15-.85-.21-1.72-.18-2.59-.05-1.6-.08-3.8-.08-6.23s0-4.62.08-6.21c-.03-.86.03-1.73.18-2.58.15.85.21,1.72.18,2.58.05,1.6.08,3.81.08,6.24s0,4.64-.08,6.23c.03.86-.03,1.72-.18,2.56Z"/>
  </g>
  <g id="freepik--character-2--inject-2">
    <path class="cls-15" d="M339.17,264.61l4.47-2.73s5.85-5.22,7.44-6.35,7.74-3.9,8.61-3.83,9.31-.47,11.32-1.4,4.18-2.16,4.18-2.16c.85,1.03.94,2.5.21,3.62-1.2,2.08-7.38,6-7.38,6l2.35,15.11s-5.75,4.53-9.33,4.83-7-.41-8.05-.09-3.53,1.2-3.53,1.2l-10.29-14.2Z"/>
    <polygon class="cls-9" points="355.16 265.6 394.39 239.58 396.62 242.86 357.75 268.76 355.16 265.6"/>
    <path class="cls-15" d="M377.2,257.95s3,1.22,1.41,4-3.64,1.88-3.64,1.88c0,0,.74,3-2.65,4.56.17,1.76-.58,3.49-2,4.56l-1.91,1-1.21-2.34s-7.18-.66-8.26-3.52v-1.48c-.78-.39-1.25-1.23-1.17-2.1.23-1.4.14-1.43,2.84-2.35s8.43-.31,8.43-.31c0,0-3.08-1.17-3-2.76s1.27-2.6,4.57-2.37c2.23.18,4.44.6,6.59,1.23Z"/>
    <path class="cls-13" d="M377.2,257.95c-.4-.07-.8-.15-1.19-.26-.77-.18-1.9-.44-3.36-.65-.8-.12-1.61-.2-2.42-.24-.94-.07-1.88.06-2.77.37-.46.18-.83.52-1.06.95-.23.45-.26.98-.08,1.46.28.48.68.88,1.16,1.17.51.33,1.05.61,1.61.83l1.37.56-1.48-.12c-2.34-.26-4.71-.26-7.05,0-.62.1-1.22.27-1.81.49-.6.18-1.17.43-1.7.75-.21.19-.33.45-.35.73l-.08.49c-.02.14-.02.29,0,.43.11.59.48,1.09,1,1.38l.14.08v.15c0,.47,0,1,.05,1.48v-.08l.18.33c.41.59.97,1.06,1.62,1.37.64.33,1.31.61,2,.82,1.38.4,2.78.68,4.21.83h.14l.06.12c.41.8.82,1.58,1.21,2.35l-.33-.1,1.91-1h0c1.35-1.01,2.08-2.65,1.91-4.33v-.16l.14-.07c.88-.38,1.63-1.02,2.13-1.84.43-.75.59-1.62.44-2.47l-.06-.32.3.11c.62.2,1.29.14,1.86-.17.51-.29.96-.69,1.3-1.17.31-.41.54-.88.69-1.37.12-.41.12-.84,0-1.25-.22-.56-.61-1.04-1.11-1.37-.34-.24-.54-.33-.53-.35.21.06.4.15.58.27.56.31,1,.8,1.25,1.38.16.44.2.92.1,1.38-.15.52-.39,1.02-.7,1.47-.35.53-.82.98-1.38,1.29-.65.37-1.43.45-2.15.22l.25-.21c.18.94.02,1.91-.44,2.75-.54.89-1.34,1.59-2.3,2l.13-.22c.08.88-.04,1.77-.36,2.59-.34.88-.93,1.64-1.7,2.19h0l-1.9,1-.22.11-.11-.21c-.4-.77-.81-1.55-1.22-2.35l.2.14c-1.46-.15-2.91-.44-4.32-.85-.74-.21-1.45-.5-2.13-.85-.73-.35-1.36-.89-1.82-1.56-.07-.15-.15-.29-.22-.42v-.08c0-.51,0-1-.05-1.48l.14.22c-.72-.31-1.24-.95-1.41-1.71-.02-.19-.02-.38,0-.57l.09-.51c.04-.39.23-.74.52-1,.58-.37,1.21-.66,1.87-.84.61-.24,1.25-.4,1.9-.5,2.38-.28,4.79-.28,7.17,0l-.1.43c-.59-.24-1.16-.54-1.69-.89-.54-.34-.98-.8-1.29-1.35-.43-1.18.17-2.49,1.36-2.93,0,0,0,0,.01,0,.94-.32,1.93-.44,2.92-.34.82.05,1.64.14,2.45.29,1.13.19,2.25.45,3.35.77.39.11.68.21.87.28l.3.16Z"/>
    <path class="cls-13" d="M371.49,268.38c-2-.8-4.07-1.41-6.19-1.82-2.14-.23-4.3-.27-6.45-.1.59-.27,1.22-.42,1.87-.46,3.11-.42,6.27.06,9.12,1.38.61.23,1.16.57,1.65,1Z"/>
    <path class="cls-13" d="M374.86,263.95c-.08.12-1.41-.76-3.29-1.26s-3.46-.65-3.46-.81c1.21-.22,2.45-.11,3.6.31,1.21.23,2.32.85,3.15,1.76Z"/>
    <path class="cls-9" d="M203.74,112.05c1.32-2.54,4.1-3.97,6.93-3.57,3.33-2.61,8.01-2.61,11.34,0,3.84-2.39,8.89-1.21,11.28,2.63.72,1.15,1.13,2.46,1.22,3.81,3.72-.67,7.28,1.79,7.95,5.51.39,2.13-.26,4.32-1.74,5.9,3.48,1.05,5.44,4.73,4.39,8.2-.91,2.99-3.79,4.93-6.9,4.65l-33.08-19.45c-2.05-2-2.61-5.09-1.39-7.68Z"/>
    <path class="cls-15" d="M239.19,140.07c-1.45-14.49-13.79-25.42-28.35-25.12h-1.45c-15.56,1.23-23.21,15.13-21.55,30.66l3.33,51.85,2.27,6.48,26.81,33.6,6.76-30.27.13-14s14.93-2.64,14.81-17.62c-.06-7.23-1.4-22.12-2.76-35.58Z"/>
    <path class="cls-13" d="M227.12,193.3c-6.91.1-13.71-1.77-19.6-5.39,0,0,4.81,10.72,19.59,9.1v-3.71Z"/>
    <path class="cls-9" d="M235.13,154.03c.04,1.15-.85,2.13-2,2.2-1.1.14-2.1-.64-2.24-1.73,0-.05-.01-.1-.01-.15-.04-1.15.85-2.13,2-2.21,1.1-.14,2.1.64,2.24,1.73,0,.05.01.11.01.16Z"/>
    <path class="cls-9" d="M236.3,148.22c-.26.28-1.9-.88-4.2-.83s-4,1.24-4.22,1c-.13-.12.13-.63.86-1.18.98-.71,2.16-1.1,3.37-1.11,1.19-.03,2.37.32,3.35,1,.72.49.97.99.84,1.12Z"/>
    <path class="cls-9" d="M215.43,155.42c.03,1.15-.85,2.13-2,2.2-1.1.13-2.09-.65-2.23-1.74,0-.05,0-.09-.01-.14-.04-1.15.85-2.13,2-2.2,1.1-.13,2.09.65,2.23,1.74,0,.05,0,.09.01.14Z"/>
    <path class="cls-9" d="M214.28,148.35c-.26.29-1.91-.88-4.21-.82s-4,1.24-4.22,1c-.13-.12.13-.63.86-1.18.98-.71,2.16-1.11,3.37-1.12,1.2-.03,2.37.32,3.36,1,.71.5.93,1,.84,1.12Z"/>
    <path class="cls-9" d="M222.21,165.26c1.2-.41,2.45-.66,3.72-.76.59-.07,1.14-.2,1.23-.6.04-.61-.1-1.21-.42-1.73-.59-1.41-1.19-2.89-1.83-4.44-2.55-6.33-4.4-11.53-4.15-11.63s2.53,4.94,5.07,11.27c.62,1.55,1.2,3,1.76,4.46.38.7.51,1.52.35,2.3-.16.43-.51.75-.95.88-.32.1-.66.16-1,.16-1.25.19-2.52.22-3.78.09Z"/>
    <path class="cls-9" d="M215.47,166.95c.37,0,.43,2.47,2.6,4.2s4.83,1.4,4.86,1.74c0,.16-.58.5-1.71.56-1.45.04-2.86-.43-4-1.32-1.1-.87-1.82-2.14-2-3.53-.19-1,.08-1.65.25-1.65Z"/>
    <path class="cls-9" d="M214.17,141.78c-.26.6-2.25.11-4.66.2s-4.41.63-4.67,0c-.11-.28.28-.84,1.12-1.36,1.08-.64,2.3-.98,3.55-1,1.24-.04,2.46.24,3.55.83.83.5,1.23,1.04,1.11,1.33Z"/>
    <path class="cls-9" d="M235.65,141.95c-.35.56-2,.18-3.88.35s-3.47.71-3.89.21c-.19-.25,0-.8.66-1.36.87-.7,1.94-1.11,3.06-1.18,1.12-.1,2.24.16,3.2.73.73.43,1,.95.85,1.25Z"/>
    <path class="cls-9" d="M237.61,133.23s-4.15-9.3-8.71-11.4c-5.54-2.53-7.77,3.53-13,2.17s-10.52-3.78-15.77.36c-5.75,4.54-3,7.58-3.18,14.23-.9,27-5.67,34.7-7.33,22-.18-1.39-4.06-2.42-4.75-8.28-.9-7.6-1.39-16.85.2-22.29,1.34-4.58,3.88-7.79,8.46-11.35,7.24-5.63,17.34-6,24.22-5.41s20.24,8.21,19.86,19.97Z"/>
    <path class="cls-15" d="M190.55,160.2c-.12-2.24-2.02-3.96-4.26-3.85-.07,0-.14,0-.21.02-2.79.32-5.87,2-5.56,7.74.54,10.24,10.7,7.58,10.7,7.29s-.41-6.92-.67-11.2Z"/>
    <path class="cls-13" d="M188.79,167.67s-.17.13-.46.29c-.42.2-.89.23-1.33.09-1.11-.34-2.11-2-2.25-3.85-.07-.88.05-1.76.36-2.58.15-.66.63-1.2,1.27-1.43.42-.14.87.05,1.08.43.15.28.1.49.15.5s.21-.18.11-.6c-.07-.25-.23-.47-.44-.62-.29-.2-.65-.27-1-.21-.84.21-1.52.85-1.78,1.68-.39.91-.55,1.9-.47,2.89.18,2.06,1.34,3.93,2.84,4.28.56.13,1.15,0,1.61-.35.31-.24.35-.51.31-.52Z"/>
    <path class="cls-9" d="M190.37,140.35c1.28.99,2.78,1.65,4.38,1.92,1.6.12,3.42-.84,3.66-2.43.1-.71-.09-1.54.37-2.1s1.58-.48,2.44-.41c3.09.18,5.88-1.83,6.69-4.82.78,1.12,2.55,1,3.69.27,1.04-.87,1.95-1.88,2.72-3,.78-1.14,2.07-1.82,3.45-1.83.73.24,1.48.39,2.24.45,1.34-.15,2-1.74,2.14-3.07s.3-2.9,1.43-3.65,2.41-.34,3.66-.18,2.83-.17,3.12-1.38c.1-.66-.08-1.33-.49-1.85-1.77-2.51-5.03-3.48-7.88-2.35-1.52-4.73-6.58-7.34-11.32-5.83-2.26.73-4.15,2.32-5.24,4.43-3.8-3.31-9.56-2.91-12.87.89-.7.81-1.26,1.73-1.64,2.73-3.56-.85-7.13,1.34-7.98,4.89-.4,1.66-.14,3.41.72,4.89-1.82,1.09-3.36,3-3.35,5.07s2.11,4.19,4.15,3.59c-.89,1.81-.15,4.01,1.66,4.9,1.7.84,3.76.24,4.75-1.38"/>
    <path class="cls-14" d="M183.71,136.52c-.09.73.15,1.47.67,2,.52.64,1.26,1.06,2.08,1.18,1.05.14,2.12-.19,2.9-.91l-.43-.06c.56.95,1.27,1.79,2.1,2.51.55.49,1.19.88,1.89,1.13,1.84.58,3.85-.06,5-1.61.4-.66.67-1.39.79-2.15.07-.27.09-.55.06-.83,0,0-.13.28-.29.78-.19.71-.49,1.39-.9,2-1.48,1.77-4.11,2-5.87.52-.1-.08-.19-.16-.28-.25-.79-.67-1.46-1.47-2-2.35l-.19-.3-.25.25c-.66.62-1.55.92-2.45.83-.72-.08-1.38-.41-1.87-.94-.45-.52-.77-1.14-.96-1.8Z"/>
    <path class="cls-14" d="M202.57,112.73s.27.07.73.25c.66.27,1.22.73,1.62,1.32l.13.2.14-.2c1.25-1.76,2.92-3.17,4.86-4.11,1.25-.61,2.61-.95,4-1,1.53-.02,3.04.38,4.36,1.15,1.04.61,1.93,1.42,2.63,2.4.64.91,1.05,1.96,1.19,3.06v.33l.31-.1c1.43-.41,2.95-.25,4.27.43,1.03.55,1.86,1.41,2.38,2.45.43.94.67,1.96.7,3,.09-.27.12-.56.1-.84,0-.8-.17-1.59-.51-2.32-.51-1.15-1.37-2.1-2.46-2.71-1.41-.79-3.07-.98-4.63-.55l.34.23c-.14-1.2-.57-2.34-1.25-3.33-.74-1.05-1.7-1.93-2.81-2.58-1.42-.83-3.04-1.25-4.68-1.21-1.47.06-2.91.42-4.22,1.08-2,1-3.69,2.51-4.91,4.39h.27c-.45-.62-1.1-1.08-1.83-1.3-.24-.07-.49-.08-.73-.04Z"/>
    <polygon class="cls-9" points="169.56 425.49 169.92 371.64 177.5 352 177.51 346.7 263.09 345.27 263.09 351.44 272.91 375.85 273.43 425.49 224 425.49 219.87 403.08 218.92 425.49 169.56 425.49"/>
    <path class="cls-5" d="M190.95,193.34l17.86,14,11.31,14.36,4.14-14.89,3-11.68,4.87,4.83,12.33,26.25,13.87,126.91s-24.19,7.09-36.72,7.94-32.5-2.57-32.5-2.57v-66.78l-7.11-66.13,8.58-25.34.37-6.9Z"/>
    <path class="cls-9" d="M227.04,360.21c0-.12,0-.24,0-.36v-1c0-1-.09-2.3-.15-4-.12-3.52-.29-8.56-.5-14.78-.43-12.49-1.12-29.74-2.1-48.77s-2.09-36.27-2.94-48.74c-.44-6.21-.79-11.24-1-14.76-.12-1.72-.21-3.06-.27-4,0-.44,0-.78-.06-1.05-.01-.12-.01-.23,0-.35.03.11.05.23.05.35l.11,1c.09,1,.21,2.29.37,4,.31,3.48.72,8.52,1.19,14.75,1,12.46,2.11,29.68,3.1,48.73s1.53,36.26,1.84,48.72c.17,6.25.28,11.31.33,14.8,0,1.72,0,3.07.05,4v1c.02.15.01.31-.02.46Z"/>
    <path class="cls-2" d="M188.17,199.95l-4.13,5.69-33.83,17.8,18.83,57.41,5.07,32.2-19,76.5s23.07,7.94,25.1,5.4c.85-1.06,3.28-6.57,5.8-12.59,5.02-11.99,8.28-24.65,9.68-37.57,1.42-13,2.71-29.62,1.76-40.86-1.77-21.05-4.56-55.78-4.81-64.91s-1.87-43.59-1.87-43.59l-2.6,4.52Z"/>
    <path class="cls-2" d="M229.61,196.55l11.2,6.54,36.24,11.91-2.9,25.63-1.67,66.32,11.41,79.61s-12.17,4.31-17,2.54-11.41-12.68-11.67-19.27-9.63-70.49-9.63-70.49l-9.13-85.95-6.85-16.84Z"/>
    <path class="cls-9" d="M241.5,203.05c.16.16.31.33.45.51l1.26,1.54c1.1,1.39,2.67,3.35,4.65,5.83l.1.12-.13.1-3.94,3-.06-.33,4.63,1.47h.14v.16c-.09,8.24-.2,18.63-.32,29.88-.2,13.74-.38,26.17-.51,35.22-.09,4.47-.16,8.11-.22,10.67,0,1.23-.06,2.2-.08,2.9v.75c.01.09.01.17,0,.26,0-.09,0-.17,0-.26v-14.33c.09-9.05.22-21.48.36-35.22.16-11.25.31-21.63.43-29.88l.14.2-4.61-1.5-.35-.11.29-.22,4-2.94v.22l-4.54-5.92-1.19-1.58c-.18-.17-.35-.35-.5-.54Z"/>
    <path class="cls-9" d="M196.37,293.01c-.04-.08-.07-.16-.09-.25l-.24-.74c-.23-.68-.54-1.63-.93-2.84-.81-2.46-2-6-3.55-10.39-.78-2.19-1.64-4.58-2.55-7.15-1.01-2.73-1.88-5.51-2.6-8.33-1.56-6.48-2.78-13.04-3.64-19.65-1.25-9.14-2.06-17.76-2.56-25.17v-.1l.07-.08,4-3.84v.31l-3.74-2.83-.15-.11.11-.15,6.82-9.25,1.88-2.5c.2-.27.37-.48.5-.65.05-.07.11-.14.18-.2-.04.08-.08.17-.14.24-.12.17-.27.39-.45.67l-1.8,2.56-6.69,9.35v-.26l3.81,2.84.19.15-.17.17c-1.26,1.22-2.57,2.51-4,3.87l.06-.18c.54,7.4,1.38,16,2.63,25.13.86,6.59,2.06,13.13,3.58,19.6.76,2.97,1.61,5.74,2.54,8.31.9,2.57,1.73,5,2.5,7.16,1.5,4.4,2.65,8,3.4,10.46.37,1.24.65,2.21.83,2.87l.19.76c.01.07.02.15,0,.22Z"/>
    <polygon class="cls-1" points="167.36 340.37 187.03 348.09 188.35 343.71 195.03 349.82 196.23 339.19 190.06 327.69 168.8 334.58 167.36 340.37"/>
    <path class="cls-15" d="M234.21,340.22l-8-4.85-7-6.35c1.63,1.31,3.47,2.33,5.45,3,1.95.6,4.06-.19,5.15-1.92,0,0-2.88-1.81-3.87-2.36s-10.94-8-13.46-8.53-19.17-3.94-19.17-3.94l-.27.86-8.22,17.54,7.31,2c1.39,1.95,2.64,4.01,3.73,6.14,1.64,3.29,9.62,6.53,12.69,8.15s6.55-1.21,6.55-1.21c3.53.8,4.4-3,4.4-3,4.06-.55,4.4-5,4.4-5,0,0,7.37,2.85,9.63,3.25.7.19,1.44-.19,1.68-.88.44-1.08.01-2.32-1-2.9Z"/>
    <path class="cls-13" d="M223.9,340.72c-1.63-.5-3.19-1.21-4.65-2.1-1.55-.75-2.96-1.76-4.15-3,.09-.12,1.94,1.18,4.4,2.52,1.53.75,3,1.61,4.4,2.58Z"/>
    <path class="cls-13" d="M210.96,340.07c1.64.7,3.18,1.62,4.59,2.72,1.5.97,2.94,2.02,4.32,3.16-1.65-.69-3.2-1.59-4.62-2.68-1.5-.97-2.93-2.04-4.29-3.2Z"/>
    <path class="cls-13" d="M207.79,343.45c.09-.09,1.63,1.19,3.7,2.58,1.3.78,2.51,1.69,3.61,2.73-1.39-.61-2.7-1.38-3.91-2.3-2.09-1.4-3.52-2.9-3.4-3.01Z"/>
    <path class="cls-13" d="M209.83,322.02c.61,0,1.22.14,1.78.38,1.39.51,2.68,1.23,3.84,2.15,1.15.91,2.19,1.95,3.08,3.12.42.45.76.97,1,1.53-.14.11-1.74-2.16-4.37-4.24-1.65-1.2-3.44-2.19-5.33-2.94Z"/>
    <path class="cls-2" d="M132.79,319.65c-2.11-1.32-3.43-3.61-3.52-6.1-.06-3.47.14-6.95.6-10.39,1.41-11.71,20.58-79.7,20.58-79.7l19.27,53-6.62,23.07,33.73,16.15-9.39,26.51s-44.82-16.42-54.65-22.54Z"/>
    <path class="cls-2" d="M277.05,215l30.95,58.85.84,1.21,33.76-17.23,11.11,22.49-45.42,27.63c-5.18,3.08-11.86,1.58-15.22-3.42l-20.07-30-5.4-24.63,9.45-34.9Z"/>
    <path class="cls-9" d="M273.19,231.79c.05.24.07.49.06.74,0,.54.05,1.24.08,2.13,0,1.9.08,4.56.14,7.82.08,6.61.12,15.74,0,25.82s-.31,19.22-.52,25.83c-.12,3.26-.22,5.91-.29,7.82-.05.88-.09,1.59-.11,2.12,0,.25-.03.5-.08.74-.03-.25-.03-.49,0-.74v-2.13c0-1.9.08-4.56.13-7.82.12-6.61.27-15.74.37-25.82s.12-19.21.13-25.82v-9.95c.01-.25.04-.5.09-.74Z"/>
    <path class="cls-9" d="M157.92,238.18c.09.19.17.39.21.59.14.45.31,1,.52,1.73.44,1.57,1.06,3.74,1.81,6.39,1.5,5.4,3.57,12.86,5.67,21.16s3.75,15.87,4.8,21.38c.52,2.75.92,5,1.15,6.54l.27,1.78c.05.21.07.42.06.63-.07-.2-.13-.4-.16-.61-.1-.46-.22-1.05-.37-1.77-.32-1.6-.77-3.8-1.31-6.5-1.14-5.49-2.86-13-4.95-21.33s-4.1-15.76-5.52-21.19c-.68-2.66-1.24-4.84-1.65-6.43l-.42-1.75c-.06-.2-.1-.41-.11-.62Z"/>
    <path class="cls-9" d="M143.96,325.09s.08,0,.22.06l.63.23,2.43.91,9.07,3.48,31.22,12.18-.32.15,6.28-17.78c1.06-3,2.09-5.89,3.1-8.72l.13.32-33.35-16.12h0c-4.48-1.49-9.36-1.28-13.7.58-1.17.51-2.3,1.1-3.38,1.78l-.83.55c-.09.07-.19.13-.3.17l.27-.22.8-.59c1.07-.72,2.19-1.34,3.36-1.88,4.38-1.96,9.33-2.22,13.9-.74h0l33.4,16,.21.1-.08.22c-1,2.83-2,5.76-3.08,8.72-2.21,6.23-4.35,12.23-6.31,17.78l-.09.24-.24-.09-31.16-12.34-9-3.62-2.4-1-.61-.27-.17-.1Z"/>
    <path class="cls-9" d="M309.07,274.46c.14.77.17,1.55.08,2.32-.12,1.86-.38,3.7-.78,5.52-.45,2.14-.9,4-1.2,5.43-.12.76-.31,1.51-.57,2.24-.03-.78.03-1.55.2-2.31.22-1.41.62-3.34,1.06-5.46s.77-4.05.93-5.46c.04-.77.13-1.53.28-2.28Z"/>
    <path class="cls-9" d="M309.07,275.88c-.34,1.84-.88,3.64-1.63,5.35-.59,1.77-1.3,3.49-2.12,5.16.34-1.84.88-3.64,1.63-5.35.59-1.77,1.3-3.49,2.12-5.16Z"/>
    <path class="cls-9" d="M219.7,221.16c-.35-.26-.69-.55-1-.86-.64-.65-1.49-1.48-2.51-2.5l-8.49-8.68h.36c-1.67,2.08-2.53,4.71-2.4,7.38v.59l-.45-.37c-4.3-3.48-7.78-6.89-10.38-9.22-1.29-1.18-2.34-2.12-3.07-2.75-.39-.31-.76-.64-1.1-1,.43.25.84.55,1.22.87.77.6,1.85,1.49,3.18,2.64,2.66,2.26,6.2,5.64,10.47,9.08l-.42.22c-.06-.96.01-1.93.21-2.87.36-1.79,1.15-3.47,2.32-4.88l.19-.21.18.19,8.37,8.81,2.41,2.6c.33.29.64.61.91.96Z"/>
    <path class="cls-9" d="M231.06,202.18c.06.26.07.53.05.8,0,.52,0,1.28-.11,2.23-.2,2.58-.62,5.15-1.26,7.66l-.15.63-.3-.58c-.86-1.67-1.97-3.2-3.29-4.54-.38-.39-.77-.75-1.15-1.07l.43-.14c-.77,3.45-1.8,6.84-3.08,10.14-.48,1.25-.91,2.24-1.22,2.91-.14.35-.32.69-.54,1,.08-.37.2-.74.36-1.09l1.08-3c1.16-3.32,2.13-6.71,2.89-10.14l.09-.42.33.28c.39.34.79.71,1.18,1.1,1.36,1.38,2.49,2.96,3.35,4.69l-.45.05c.64-2.49,1.12-5.02,1.43-7.57.23-1.82.3-2.94.36-2.94Z"/>
    <polygon class="cls-2" points="261.86 335.61 264.88 345 282 343.42 276.66 334.44 261.86 335.61"/>
    <path class="cls-9" d="M261.86,335.61c.33-.07.66-.11,1-.13l3-.3c2.59-.25,6.32-.6,10.76-1h.15l.07.12,5.36,9,.21.35h-.41l-.88.08-16.24,1.44h-.16l-.05-.16c-.92-2.93-1.63-5.32-2.12-7-.22-.76-.4-1.38-.55-1.87-.07-.2-.12-.41-.16-.62.11.22.2.45.27.69l.66,1.89c.57,1.67,1.34,4,2.29,6.75l-.21-.14,16.22-1.56.88-.08-.2.39-5.31-9,.22.12c-4.33.32-8,.55-10.61.71l-3.07.18c-.7.14-1.1.15-1.12.14Z"/>
    <rect class="cls-2" x="251.22" y="261.12" width="18.38" height="5.93"/>
    <path class="cls-9" d="M269.6,267.05c-.01-.15-.01-.29,0-.44,0-.32,0-.71-.05-1.18,0-1.08,0-2.53-.09-4.31l.17.17c-4.38.05-11,.09-18.38.09.11-.12-.26.26.26-.26h0v5.9l-.25-.25c5.23,0,9.79.06,13.07.11l3.87.07c.91,0,1.42.05,1.44.07-.44.05-.89.07-1.33.06l-3.81.08c-3.26,0-7.9.1-13.24.11h-.25v-6.16h0c.52-.52.14-.15.26-.26,7.38,0,14,0,18.38.09h.17v.17c0,1.82-.07,3.3-.09,4.41-.01.51-.06,1.02-.13,1.53Z"/>
    <path class="cls-1" d="M248.37,215.48l2.83,3.89s-.79,59-3.79,73.68l.96-77.57Z"/>
  </g>
  <g id="freepik--character-1--inject-2">
    <path class="cls-11" d="M98.78,250.17c.11-14.32-10.79-26.32-25.06-27.58l-1.42-.13c-15.36-.45-24.33,12.34-24.36,27.71l-3.39,54-1.53,11,35.35,9.11,3-23.33s14.9-1,16.38-15.66c.62-7.09.93-21.8,1.03-35.12Z"/>
    <path class="cls-10" d="M81.44,300.95c-6.83-.6-13.34-3.14-18.76-7.33,0,0,3.35,11.3,18.13,11.27l.63-3.94Z"/>
    <path class="cls-9" d="M93.05,263.79c-.09,1.14-1.07,2-2.21,1.94-1.1,0-2-.89-2-2,0-.03,0-.05,0-.08.09-1.14,1.07-2,2.21-1.94,1.1,0,2,.89,2,2,0,.03,0,.05,0,.08Z"/>
    <path class="cls-9" d="M94.99,257.08c-.28.25-1.77-1.07-4-1.26s-4,.79-4.23.49c-.11-.13.2-.6,1-1.07,1.04-.59,2.23-.85,3.42-.73,1.17.1,2.28.57,3.17,1.35.59.59.78,1.09.64,1.22Z"/>
    <path class="cls-9" d="M72.2,262.77c-.08,1.14-1.07,2.01-2.21,1.94-1.1,0-2-.89-2-2,0-.03,0-.05,0-.08.09-1.14,1.07-2,2.21-1.94,1.1,0,2,.89,2,2,0,.03,0,.05,0,.08Z"/>
    <path class="cls-9" d="M72.76,255.54c-.28.25-1.77-1.07-4-1.26s-4,.79-4.24.49c-.11-.13.2-.6,1-1.06,1.04-.59,2.23-.85,3.42-.74,1.17.11,2.28.58,3.17,1.35.6.63.79,1.11.65,1.22Z"/>
    <path class="cls-9" d="M79.48,273c1.22-.26,2.47-.37,3.72-.33.58,0,1.14-.08,1.27-.46.11-.59.03-1.2-.23-1.75l-1.32-4.51c-1.81-6.46-3.07-11.74-2.81-11.82s1.94,5.11,3.76,11.57c.43,1.59.85,3.11,1.24,4.56.3.73.34,1.54.1,2.29-.2.39-.57.67-1,.76-.33.06-.67.08-1,.05-1.25.04-2.51-.08-3.73-.36Z"/>
    <path class="cls-9" d="M72.7,273.95c.37,0,.15,2.46,2.1,4.39s4.57,1.91,4.57,2.26c0,.15-.62.42-1.73.35-1.44-.11-2.79-.72-3.82-1.72-.99-.97-1.56-2.28-1.6-3.66-.02-1.04.31-1.62.48-1.62Z"/>
    <path class="cls-9" d="M74.13,246.74c-.28.6-2.51.11-5.18.19s-4.89.62-5.19,0c-.13-.28.29-.82,1.21-1.34,2.46-1.27,5.37-1.33,7.89-.17.94.53,1.39,1.04,1.27,1.32Z"/>
    <path class="cls-9" d="M94.74,250.47c-.44.48-2-.19-3.82-.38s-3.48,0-3.8-.53c-.14-.27.16-.77.89-1.19,2.01-1.02,4.43-.74,6.14.73.61.59.79,1.14.59,1.37Z"/>
    <path class="cls-11" d="M49.04,264.67c.12-2.21-1.57-4.09-3.77-4.21-.08,0-.15,0-.23,0-2.76,0-6,1.31-6.27,7-.56,10.08,9.66,8.57,9.7,8.28s.37-6.84.57-11.06Z"/>
    <path class="cls-10" d="M46.52,271.8s-.18.11-.49.23c-.43.15-.9.13-1.31-.05-1-.45-1.84-2.19-1.79-4,.03-.86.24-1.71.63-2.48.22-.63.75-1.11,1.4-1.27.42-.08.84.14,1,.54.12.29,0,.48.09.5s.23-.15.17-.57c-.04-.26-.17-.49-.36-.66-.28-.24-.64-.35-1-.31-.85.12-1.57.68-1.92,1.46-.47.85-.73,1.8-.76,2.77,0,2,.88,4,2.31,4.5.54.19,1.13.12,1.62-.18.38-.24.44-.46.41-.48Z"/>
    <path class="cls-9" d="M42.74,253.29c.36,3-.71,7.64,1.94,7.41,5.24-.45,2.36,9.68,4.94,9.06s5.13-3.21,6.31-9.54c1.5-8-.8-14.38,3.87-23.1,2.66-3.41,6.92-5.18,11.22-4.67,4.32.6,8.03,3.4,9.78,7.4.91-2.74,3-6.76,5.69-7.71,2.8-.99,5.92-.2,7.91,2,1.9,2.31,1.82,5.66-.2,7.87,1.13.55,2.49.3,3.35-.62-.12,1.35-.79,2.59-1.85,3.42,1.08-.1,2.1-.58,2.85-1.37l-1.32,3.37c4.23.81,9-2.63,10.82-6.1,2.69-5.26,2.22-11.07-.08-16.51s-7.28-9.81-13.12-10.71-11.16,1.08-14.28,6.09c-3.35-3.29-10.86-5.46-15.39-4.22-4.61,1.3-8.2,4.91-9.49,9.52-2.46-1.54-5.77-1.19-8.28.26l-.62.38c-3.48,2.38-5.49,6.39-5.33,10.6,0,1.66.34,3.43.45,4.78.36,3.97.83,12.39.83,12.39Z"/>
    <path class="cls-14" d="M98.25,241.2c.14-.06.27-.13.39-.22.36-.23.69-.49,1-.78,1.12-1.08,1.94-2.45,2.35-3.95.66-2.26.31-4.69-.95-6.67-1.55-2.45-4.21-3.98-7.11-4.09-1.48-.01-2.94.3-4.28.92-1.24.57-2.38,1.32-3.39,2.23-1.72,1.53-3.08,3.41-4,5.52-.63,1.41-1.04,2.9-1.22,4.43-.05.41-.08.83-.08,1.25-.02.15-.02.29,0,.44.19-2.07.72-4.1,1.57-6,.94-2.04,2.3-3.86,4-5.34,2.01-1.87,4.64-2.94,7.39-3,2.75.11,5.28,1.55,6.77,3.87,1.23,1.88,1.59,4.2,1,6.37-.37,1.47-1.12,2.81-2.16,3.91-.78.76-1.3,1.07-1.28,1.11Z"/>
    <path class="cls-14" d="M99.48,245.95c.14-.13.27-.28.38-.44.23-.29.58-.73,1-1.3,1.23-1.61,2.32-3.34,3.23-5.15.61-1.27,1.05-2.62,1.32-4,.31-1.61.27-3.26-.1-4.86-.45-1.77-1.4-3.37-2.75-4.6-1.44-1.31-3.2-2.23-5.1-2.66-1.9-.4-3.85-.4-5.75,0-1.75.37-3.43,1-5,1.87-2.72,1.41-4.9,3.68-6.2,6.46-.84,1.88-1.07,3.98-.67,6,.11.54.28,1.07.5,1.58.07.18.17.35.28.51-.26-.69-.47-1.4-.61-2.12-.32-1.99-.04-4.02.79-5.85,1.3-2.69,3.45-4.88,6.11-6.23,3.16-1.83,6.87-2.46,10.46-1.79,1.83.41,3.52,1.29,4.91,2.54,1.29,1.17,2.21,2.69,2.64,4.38.37,1.54.41,3.13.13,4.69-.24,1.36-.66,2.69-1.24,3.94-.87,1.82-1.9,3.55-3.08,5.19-.39.55-.7,1-.94,1.35-.12.15-.23.32-.31.49Z"/>
    <path class="cls-14" d="M47.28,247.44c.06-.05-.79-.89-1.77-2.52-2.59-4.3-2.83-9.62-.62-14.13.83-1.71,1.61-2.61,1.54-2.66s-.23.19-.57.61c-.48.6-.89,1.24-1.25,1.91-2.44,4.57-2.2,10.11.64,14.44.41.64.88,1.24,1.4,1.8.18.21.39.4.63.55Z"/>
    <path class="cls-14" d="M56.37,248.62s-.46-.3-1.16-1c-.97-.93-1.66-2.12-2-3.42l-.26-1-.08,1.05c-.1,1.42-.22,3.05-.34,4.82l.35-.14c-1.12-1.06-2.04-2.32-2.72-3.7-.87-1.73-1.34-3.64-1.37-5.58-.02-1.59.24-3.17.78-4.66.53-1.37,1.22-2.68,2.07-3.88,0,0-.09.07-.23.22-.2.22-.39.44-.56.68-.66.9-1.2,1.89-1.59,2.94-1.35,3.42-1.17,7.26.48,10.55.71,1.43,1.67,2.72,2.83,3.81l.33.3v-.44c.1-1.77.19-3.41.26-4.83h-.33c.38,1.35,1.15,2.56,2.21,3.47.29.25.6.47.93.66.26.11.4.17.4.15Z"/>
    <path class="cls-14" d="M62.5,228.18c.75-1,1.69-1.85,2.76-2.49,1.18-.66,2.49-1.03,3.84-1.08,1.65-.03,3.27.38,4.7,1.21,1.44.81,2.67,1.96,3.57,3.35.73,1.14,1.28,2.39,1.61,3.7.26,1.23.43,2.47.5,3.72.08-.33.11-.66.09-1,0-.93-.09-1.87-.29-2.78-.3-1.37-.83-2.67-1.57-3.86-.93-1.45-2.19-2.66-3.69-3.51-1.5-.87-3.21-1.3-4.94-1.23-1.41.07-2.79.49-4,1.22-.81.49-1.51,1.12-2.08,1.87-.16.2-.3.42-.41.65-.07.14-.1.22-.09.23Z"/>
    <path class="cls-14" d="M66.05,220.95c.94-.31,1.92-.52,2.91-.62,2.39-.12,4.75.61,6.65,2.07,1.86,1.51,3.25,3.52,4,5.8.6,1.74.7,2.9.78,2.89.05-.27.05-.55,0-.82-.08-.74-.23-1.46-.45-2.17-.68-2.38-2.08-4.49-4-6.05-2-1.52-4.5-2.24-7-2-.74.07-1.47.25-2.16.54-.27.07-.51.19-.73.36Z"/>
    <path class="cls-14" d="M41.48,304.5s-9.78,9-13.09,22.32c-4.23,16.95,11.27,98.79,11.27,98.79l81.79-.12-17.54-64.75s-20.29-39.58-20.54-40.46-1-9.34-1-9.34l-37.43-15.4-3.46,8.96Z"/>
    <path class="cls-11" d="M217.7,391.95c-.78-1.72-6.4-5-6.4-5-.47-1.72-3.28-3.35-3.28-3.35-1.04-.96-2.26-1.71-3.59-2.19-2.2-.78-21.84,1.56-21.84,1.56l-14.67,1,.83,19.32c0,.47,13.77-5,13.77-5,0,0,5.79,1.4,10.95,2.34s15.14-2.68,15.14-2.68l3.82,3.7c.79,1.62,1.19,3.41,1.18,5.21,0,1.56,2,3,3.23,1.89s.37-6.52.37-6.52c.72.28,1.53.18,2.16-.28,1-.74-.89-8.24-1.67-10Z"/>
    <path class="cls-10" d="M208.85,392.64c.74-.19,1.52-.14,2.22.15,1.73.61,3.2,1.79,4.16,3.35.92,1.54,1.56,3.23,1.9,5,.2.71.3,1.45.32,2.19-.3-.67-.52-1.38-.67-2.1-.44-1.69-1.11-3.31-2-4.81-.91-1.47-2.26-2.62-3.85-3.29-.68-.22-1.37-.39-2.08-.49Z"/>
    <path class="cls-1" d="M43.02,356.47s37.85,40.48,52.4,48.34c15.69,8.53,22.57,8.27,22.57,8.27l-2.43-11.13-72.54-45.48Z"/>
    <path class="cls-14" d="M184.03,381.45l-63-7.54s-38.2-47-48-54.26-26.2-4.85-31.34,0c-2.56,2.63-4.35,5.91-5.15,9.49-1.62,6.4-1.17,13.14,1.28,19.27l2.05,5.27c1.12.84,60.58,54.38,76,55.5s69.36-3.23,69.36-3.23l-1.2-24.5Z"/>
    <path class="cls-9" d="M83.37,320.28c-.58-.1-1.15-.25-1.71-.44-1.09-.31-2.65-.8-4.57-1.46-3.84-1.3-9.06-3.31-14.79-5.62s-10.93-4.41-14.72-5.88l-4.47-1.71c-.56-.18-1.1-.41-1.63-.67.58.11,1.15.27,1.7.48,1.08.34,2.63.87,4.53,1.56,3.81,1.37,9,3.43,14.74,5.74s10.92,4.36,14.72,5.75c1.9.71,3.44,1.25,4.51,1.62.58.16,1.15.37,1.69.63Z"/>
    <path class="cls-9" d="M66.74,315.83c-.65-.12-1.3-.27-1.94-.45-1.75-.42-3.53-.69-5.33-.78-2.66-.16-5.34.08-7.93.7-1.52.38-3.01.9-4.43,1.56-1.52.73-2.95,1.62-4.28,2.66-2.62,1.95-4.69,4.55-6,7.54-1.04,2.46-1.69,5.06-1.94,7.71-.18,1.79-.27,3.6-.26,5.4v1.48c.03.17.03.35,0,.52-.05-.17-.07-.34-.07-.52,0-.39-.06-.88-.11-1.47-.08-1.81-.05-3.63.1-5.44.19-2.7.8-5.36,1.82-7.87,1.31-3.08,3.42-5.76,6.1-7.76,1.36-1.06,2.82-1.97,4.38-2.71,1.46-.67,2.98-1.19,4.54-1.56,4.43-1.02,9.05-.9,13.43.34.62.16,1.09.34,1.41.45.18.05.35.12.51.2Z"/>
    <path class="cls-9" d="M72.99,319.65s.36.27,1,.82c.33.27.76.61,1.24,1l1.62,1.53c2.44,2.33,5.87,5.9,10.1,10.6,8.48,9.38,20.26,23.17,34.17,40.14l-.14-.07,63.07,7.82h.21v.21c.38,7.76.78,15.9,1.19,24.19v.26h-.25l-1.94.15c-11.17.86-22.09,1.6-32.63,2.2-5.28.29-10.46.56-15.54.74s-10.05.34-14.92.26c-1.21,0-2.42-.08-3.62-.12-.3,0-.6,0-.9-.05l-.9-.15c-.59-.1-1.18-.25-1.75-.44-2.22-.76-4.37-1.72-6.42-2.87-3.91-2.17-7.69-4.54-11.35-7.11-7.06-4.81-13.42-9.81-19.17-14.33-11.48-9.16-20.49-16.91-26.69-22.3-3.08-2.7-5.46-4.81-7.1-6.24-.79-.72-1.4-1.26-1.83-1.64l-.62-.57s.24.17.66.53l1.86,1.6,7.17,6.14c6.24,5.34,15.27,13.05,26.78,22.16,5.76,4.54,12.13,9.45,19.23,14.34,3.65,2.56,7.43,4.92,11.33,7.07,2.02,1.13,4.14,2.08,6.33,2.82,2.21.75,4.64.65,7.05.73,4.85.07,9.82-.09,14.89-.27s10.26-.47,15.53-.76c10.54-.61,21.45-1.35,32.62-2.21l1.94-.15-.24.27c-.4-8.29-.8-16.43-1.18-24.19l.23.24-63.06-7.9h-.09l-.05-.07c-13.87-17-25.6-30.83-34-40.25-4.2-4.72-7.6-8.32-10-10.67l-1.59-1.56-1.22-1.05-1.02-.85Z"/>
    <path class="cls-9" d="M117.99,384.2c0-1.79.31-3.56.9-5.25.44-1.73,1.16-3.38,2.15-4.87.14.07-.82,2.24-1.65,5s-1.24,5.14-1.4,5.12Z"/>
    <path class="cls-9" d="M20.74,326.78h0c-3.82,0-6.92,3.1-6.92,6.92,0,0,0,0,0,.01v92h13.84v-92c0-3.82-3.09-6.92-6.91-6.93h-.01Z"/>
  </g>
  <g id="freepik--Desk--inject-2">
    <polygon class="cls-7" points="428.46 369.98 381.1 369.98 394.06 411.36 443.24 411.36 428.46 369.98"/>
    <path class="cls-4" d="M381.1,369.95c-.85.55-14,41.38-14,41.38h28.06l-14.06-41.38Z"/>
    <path class="cls-9" d="M443.24,411.36l-.09-.19c-.06-.15-.13-.34-.23-.58-.2-.54-.48-1.3-.85-2.26-.73-2-1.79-4.9-3.12-8.53-2.65-7.34-6.37-17.67-10.72-29.74l.23.16h-47.36l.27-.27,10,29.76c1.21,3.64,2.18,6.54,2.85,8.57.32,1,.56,1.74.74,2.28.07.25.13.44.18.6.02.07.04.13.05.2,0,0,0-.06-.09-.19l-.22-.58c-.19-.54-.46-1.3-.81-2.26l-3-8.53c-2.52-7.34-6.08-17.66-10.23-29.74l-.11-.32h47.87l.06.16c4.28,12.1,7.94,22.44,10.55,29.8,1.27,3.65,2.28,6.55,3,8.57.33,1,.59,1.74.77,2.29l.19.6c.06.13.08.2.07.2Z"/>
    <path class="cls-9" d="M405.13,411.36c-.14,0-3.4-9.18-7.3-20.6s-6.93-20.73-6.8-20.78,3.4,9.18,7.3,20.61,6.94,20.73,6.8,20.77Z"/>
    <path class="cls-9" d="M415.06,411.36c-.13,0-3.4-9.18-7.29-20.6s-6.94-20.73-6.81-20.78,3.41,9.18,7.3,20.61,6.94,20.73,6.8,20.77Z"/>
    <path class="cls-9" d="M425,411.36c-.14,0-3.41-9.18-7.3-20.6s-6.94-20.73-6.8-20.78,3.4,9.18,7.29,20.61,6.94,20.73,6.81,20.77Z"/>
    <path class="cls-9" d="M434.93,411.36c-.14,0-3.4-9.18-7.3-20.6s-6.94-20.73-6.8-20.78,3.4,9.18,7.3,20.61,6.93,20.73,6.8,20.77Z"/>
    <path class="cls-9" d="M391.05,374.15c-2.04.35-4.11.35-6.15,0,2.04-.35,4.11-.35,6.15,0Z"/>
    <path class="cls-9" d="M400.67,374.15c-2.04.35-4.11.35-6.15,0,2.04-.35,4.11-.35,6.15,0Z"/>
    <path class="cls-9" d="M410.2,374.15c-2.04.35-4.11.35-6.15,0,2.04-.35,4.11-.35,6.15,0Z"/>
    <path class="cls-9" d="M427.97,374.15c-1.53.35-3.13.35-4.66,0,1.53-.35,3.13-.35,4.66,0Z"/>
    <path class="cls-9" d="M420.42,374.15c-2.04.35-4.11.35-6.15,0,2.04-.35,4.11-.35,6.15,0Z"/>
    <path class="cls-9" d="M430.47,377.11c0,.15-10.51.26-23.48.26s-23.47-.11-23.47-.26,10.51-.26,23.47-.26,23.48.1,23.48.26Z"/>
    <path class="cls-9" d="M432.5,382.69c0,.14-10.51.26-23.48.26s-23.47-.12-23.47-.26,10.51-.26,23.47-.26,23.48.12,23.48.26Z"/>
    <path class="cls-9" d="M434.31,388.95c0,.15-10.51.26-23.48.26s-23.46-.13-23.46-.26,10.51-.26,23.47-.26,23.47.1,23.47.26Z"/>
    <path class="cls-9" d="M436.69,395.18c0,.14-10.51.26-23.48.26s-23.47-.12-23.47-.26,10.51-.26,23.47-.26,23.48.11,23.48.26Z"/>
    <path class="cls-9" d="M438.54,401.42c0,.14-10.51.26-23.48.26s-23.47-.12-23.47-.26,10.51-.26,23.47-.26,23.48.12,23.48.26Z"/>
    <path class="cls-2" d="M411.75,387.39c.14-.02.28-.02.42,0h1.22c1.52-.01,3.02.29,4.42.89.97.47,1.79,1.19,2.38,2.09.72,1.05.9,2.39.48,3.59-.54,1.29-1.59,2.29-2.9,2.77-1.38.47-2.86.55-4.29.25-1.41-.24-2.79-.68-4.07-1.32-1.24-.59-2.24-1.6-2.81-2.85-.56-1.15-.52-2.5.11-3.62.6-.91,1.53-1.57,2.59-1.83.84-.23,1.73-.27,2.59-.13.64.09,1.28.25,1.89.46.51.16.89.31,1.15.41.14.04.27.11.39.19-.54-.1-1.07-.24-1.59-.41-1.4-.45-2.9-.51-4.33-.17-.96.26-1.78.87-2.32,1.7-.52,1.01-.52,2.2,0,3.21.55,1.14,1.47,2.05,2.62,2.59,1.24.6,2.56,1.03,3.92,1.26,1.33.28,2.71.21,4-.22,1.18-.42,2.14-1.31,2.64-2.46.38-1.07.23-2.25-.4-3.19-.53-.85-1.28-1.54-2.17-2-1.35-.61-2.8-.95-4.27-1-.56-.03-1.12-.1-1.67-.21Z"/>
    <path class="cls-2" d="M407.56,397.36c.49-.66,1.06-1.27,1.68-1.82l4.24-4.21,4.22-4.2c.55-.62,1.17-1.18,1.83-1.68-.45.7-.97,1.35-1.56,1.93-1,1.14-2.47,2.68-4.13,4.32s-3.2,3.09-4.34,4.11c-.59.59-1.24,1.1-1.94,1.55Z"/>
    <path class="cls-2" d="M423.24,397.06c-.89-.42-1.75-.93-2.55-1.5-1.53-1-3.64-2.37-5.95-3.93s-4.38-3-5.87-4.06c-.83-.53-1.62-1.14-2.34-1.81.89.43,1.75.93,2.55,1.51,1.54,1,3.64,2.36,6,3.92s4.38,3,5.87,4.06c.82.53,1.58,1.14,2.29,1.81Z"/>
    <path class="cls-2" d="M410.95,379.21c-.85.32-1.76.41-2.65.28-.9.04-1.79-.15-2.6-.55.87-.12,1.76-.12,2.63,0,.88-.03,1.76.06,2.62.27Z"/>
    <path class="cls-2" d="M410.89,380.6c0,.15-.8.32-1.82.39s-1.84,0-1.84-.14.8-.32,1.81-.38,1.84,0,1.85.13Z"/>
    <path class="cls-2" d="M420.66,379.5c0,.14-.83.33-1.89.33s-1.91-.18-1.9-.32.86-.19,1.9-.2,1.88.04,1.89.19Z"/>
    <path class="cls-2" d="M431.71,384.76c0,.15-.54.31-1.23.36s-1.26,0-1.27-.17.54-.3,1.23-.35,1.26.02,1.27.16Z"/>
    <path class="cls-2" d="M403.68,385.95c-.72.33-1.52.45-2.3.35-.79.06-1.58-.1-2.28-.47.76-.12,1.54-.12,2.3,0,.76-.09,1.53-.04,2.28.12Z"/>
    <path class="cls-2" d="M395.56,392.7c0,.15-.82.3-1.85.35s-1.87,0-1.87-.16.82-.3,1.85-.36,1.87.03,1.87.17Z"/>
    <path class="cls-2" d="M410.65,405.46c0,.15-.8.4-1.82.57s-1.89.19-1.91,0,.79-.39,1.82-.56,1.88-.15,1.91-.01Z"/>
    <path class="cls-2" d="M419.01,399.52c-.84.32-1.74.43-2.63.32-.9.07-1.79-.08-2.62-.43.87-.17,1.75-.2,2.63-.09.88-.06,1.76,0,2.62.2Z"/>
    <path class="cls-2" d="M429.45,398.44c0,.15-.87.32-2,.38s-2,0-2-.14c.63-.29,1.31-.42,2-.38,1.1-.06,2,0,2,.14Z"/>
    <path class="cls-9" d="M381.1,369.95c.13.05-2.88,9.35-6.73,20.77s-7.09,20.66-7.23,20.61,2.88-9.34,6.73-20.77,7.09-20.61,7.23-20.61Z"/>
    <path class="cls-9" d="M441.42,407.42c0,.15-10.51.26-23.47.26s-23.48-.11-23.48-.26,10.51-.26,23.48-.26,23.47.12,23.47.26Z"/>
    <path class="cls-4" d="M270.27,346.63l-.48-.1c-1.01-.22-2.01.42-2.23,1.43l-13.11,59.63h-65.08c-1.04,0-1.88.84-1.88,1.88h0c0,1.04.84,1.88,1.88,1.88h68.25l14.11-62.47c.23-1.01-.41-2.02-1.43-2.24-.01,0-.02,0-.03,0Z"/>
    <path class="cls-9" d="M270.27,346.63c.42.06.8.27,1.06.6.35.39.52.91.47,1.43-.1.6-.27,1.26-.43,2-.68,3.09-1.68,7.58-2.94,13.29-2.56,11.46-6.22,27.81-10.62,47.42v.17h-68.55c-1.18-.09-2.06-1.11-1.98-2.29.05-.72.46-1.36,1.09-1.71.4-.2.85-.29,1.3-.26h64.81l-.21.18c4.2-18.93,7.69-34.66,10.13-45.68,1.24-5.49,2.21-9.8,2.87-12.76.08-.67.29-1.31.62-1.9.3-.4.75-.66,1.24-.73.29-.04.6-.02.88.07l.29.08-.3-.05c-.28-.05-.58-.05-.86,0-.47.09-.89.35-1.17.73-.31.58-.5,1.22-.57,1.87-.63,3-1.56,7.28-2.74,12.78-2.41,11-5.84,26.78-10,45.72v.18h-65.02c-.36-.04-.73.03-1.05.2-.77.46-1.01,1.46-.55,2.22.26.44.72.73,1.22.78h68.34l-.22.17c4.46-19.6,8.19-35.93,10.79-47.38,1.32-5.7,2.35-10.18,3.06-13.26.17-.76.36-1.44.46-2,.05-.49-.1-.99-.41-1.37-.28-.26-.63-.43-1.01-.5Z"/>
    <rect class="cls-4" x="132.7" y="411.44" width="464.56" height="14.06"/>
    <path class="cls-9" d="M597.26,425.49c0-.41,0-4.53-.06-14.05l.06.06-464.54.2h0l.26-.26v14.05l-.26-.26,464.56.26-464.56.26h-.26v-14.58h.28l464.54.2h.09v.07c-.09,9.51-.11,13.64-.11,14.05Z"/>
    <rect class="cls-8" x="448.08" y="402.66" width="96.17" height="8.63"/>
    <path class="cls-9" d="M544.25,411.29v-2.25c0-1.48,0-3.62-.06-6.38l.1.1c-16,.09-53.06.16-96.17.16h0l.26-.26v8.63l-.26-.26,68.22.11,20.45.08h7.5-7.37l-20.39.08-68.41.11h-.26v-8.89l.26-.26h0c43.11,0,80.15.06,96.17.15h.08v.11c0,2.78,0,5-.06,6.44v1.64c0,.39-.06.69-.06.69Z"/>
    <rect class="cls-8" x="439.25" y="397.85" width="95.06" height="4.81"/>
    <path class="cls-9" d="M534.37,402.66c0-.1,0-.21,0-.31v-4.5l.08.07c-12.07.11-50.1.19-95.06.19h0l.26-.26h0v4.8l-.26-.26,67.31.1,20.29.08h7.47-7.34l-20.23.08-67.5.11h-.26v-5.06h0l.26-.26h0c45,0,83,.08,95.06.18h-.08v5.04Z"/>
    <path class="cls-9" d="M541.57,408.12c0,.14-20.83.26-46.51.26s-46.51-.12-46.51-.26,20.82-.26,46.51-.26,46.51.09,46.51.26Z"/>
    <path class="cls-9" d="M543.86,405.83c0,.14-20.83.26-46.51.26s-46.51-.12-46.51-.26,20.82-.26,46.51-.26,46.51.11,46.51.26Z"/>
    <rect class="cls-4" x="317.19" y="353.76" width="3.38" height="48.79" transform="translate(-26.34 23.89) rotate(-4.12)"/>
    <path class="cls-14" d="M317.21,387.84l4.8-.35,1.13,15.72c.1,1.32-.9,2.47-2.22,2.57,0,0,0,0,0,0h0c-1.32.08-2.45-.91-2.55-2.23l-1.16-15.71Z"/>
    <rect class="cls-14" x="316.47" y="380.64" width=".93" height="20.44" transform="translate(-27.33 23.84) rotate(-4.13)"/>
    <path class="cls-9" d="M322.01,387.49c-1.59.37-3.2.6-4.83.7l.19-.24c.09,1.09.18,2.28.28,3.54.17,2.32.29,4.42.35,6,.08.82.08,1.65,0,2.47-.22-.8-.34-1.62-.37-2.44-.15-1.52-.33-3.62-.5-5.95-.08-1.25-.16-2.44-.23-3.54v-.23h.23c1.62-.22,3.25-.33,4.88-.31Z"/>
    <rect class="cls-4" x="322.37" y="355.1" width="3.38" height="38.09"/>
    <path class="cls-14" d="M326.37,369.95h-4.81v-15.73c0-1.33,1.07-2.4,2.4-2.4h0c1.33,0,2.4,1.07,2.41,2.4v15.73Z"/>
    <rect class="cls-14" x="326.4" y="356.8" width=".93" height="20.44"/>
    <path class="cls-9" d="M321.59,369.95c1.61-.25,3.24-.36,4.87-.35l-.23.24v-3.55c0-2.33,0-4.44.08-6-.02-.83.04-1.65.18-2.47.15.81.21,1.64.19,2.47,0,1.52.07,3.63.07,6v3.78h-.23c-1.64.09-3.29.04-4.93-.12Z"/>
    <rect class="cls-4" x="329.17" y="364.04" width="3.38" height="38.09"/>
    <path class="cls-14" d="M333.2,378.95h-4.83v-15.79c0-1.32,1.06-2.39,2.38-2.4,0,0,.01,0,.02,0h0c1.33,0,2.4,1.06,2.41,2.39,0,0,0,0,0,.01l.02,15.79Z"/>
    <rect class="cls-14" x="333.2" y="365.74" width=".93" height="20.44"/>
    <path class="cls-9" d="M328.37,378.95c1.61-.25,3.24-.36,4.87-.35l-.23.24v-3.55c0-2.33,0-4.44.08-6-.02-.83.04-1.65.18-2.47.16.81.22,1.64.19,2.47.05,1.52.07,3.63.07,6v3.78h-.23c-1.64.09-3.29.05-4.93-.12Z"/>
    <rect class="cls-4" x="335.59" y="353.7" width="3.38" height="38.09"/>
    <path class="cls-14" d="M339.61,368.58h-4.81v-15.75c0-1.33,1.08-2.41,2.41-2.41h0c1.33,0,2.4,1.08,2.4,2.41v15.75Z"/>
    <rect class="cls-14" x="339.61" y="355.4" width=".93" height="20.44"/>
    <path class="cls-9" d="M334.8,368.58c1.61-.24,3.24-.35,4.87-.34l-.23.23v-3.55c0-2.33,0-4.43.07-6-.03-.83.03-1.66.19-2.47.14.82.2,1.64.18,2.47.05,1.53.08,3.63.08,6v3.79h-.23c-1.64.09-3.29.04-4.93-.13Z"/>
    <polygon class="cls-2" points="340.12 411.36 318.48 411.36 315.64 379.76 343.22 379.76 340.12 411.36"/>
  </g>
</svg>