<?xml version="1.0" encoding="UTF-8"?>
<svg id="Capa_2" data-name="Capa 2" xmlns="http://www.w3.org/2000/svg" viewBox="0 0 425.69 228.97">
  <defs>
    <style>
      .cls-1 {
        fill: #153244;
        stroke-width: 0px;
      }
    </style>
  </defs>
  <g id="Capa_1-2" data-name="Capa 1">
    <path class="cls-1" d="M421.56,181.35L339.91,23.59c-7.04-14.01-21.48-23.59-38.22-23.59h-.04c-16.73,0-31.17,9.59-38.21,23.59l-57.48,111.04c-6.43-11.41-16.65-20.39-29-25.22,13.79-9.96,22.76-26.21,22.76-44.54,0-21.24-12.06-39.64-29.71-48.76-15.54-8.18-33.29-12.79-52.09-12.79H31.96C14.28,3.32,0,17.61,0,35.26v159.97c0,17.63,14.28,31.93,31.96,31.93h92.96c17.92,0,34.97-3.71,50.46-10.33l5.9-2.85c.33-.16.65-.33.97-.49,5.58,9.26,15.71,15.49,27.34,15.49,12.93,0,24.08-7.68,29.1-18.75,2.51-5.85,8.14-9.98,14.82-10.3h96.32c6.68.32,12.31,4.46,14.82,10.3,5.01,11.07,16.17,18.75,29.1,18.75,17.67,0,31.94-14.32,31.94-31.91,0-5.73-1.47-11.09-4.13-15.71Z"/>
  </g>
</svg>